<svg width="362" height="507" viewBox="0 0 362 507" fill="none" xmlns="http://www.w3.org/2000/svg">
    <path d="M116 248H226V371H116V248Z" fill="#CCCCCC"/>
    <path d="M106.616 114.694L212.49 113.714C212.224 98.2934 208.636 83.1507 200.793 69.6003C195.642 60.7008 195.754 51.0155 196.995 42.8559C198.91 30.2639 194.456 17.3804 184.558 9.36466C176.994 3.22831 167.447 0.0695536 157.715 0.483324L155.659 0.568972C148.963 0.847264 142.444 2.80339 136.7 6.25774C130.957 9.71209 126.173 14.554 122.789 20.3388C119.349 26.5144 117.962 33.6238 118.827 40.6395C119.499 47.2408 117.893 53.9094 114.137 60.6414C107.657 75.424 106.254 94.3402 106.616 114.694Z"
          fill="#2F2E41"/>
    <path d="M35.7822 522.176L56.561 527.596L157.745 307.161L151.421 522.176H172.199C194.403 421.017 234.49 304.269 216.467 267.41L108.96 261.086L35.7822 522.176Z"
          fill="#00B0FF"/>
    <path d="M158.648 77.6911C143.18 77.6911 130.641 65.1523 130.641 49.6849C130.641 34.2175 143.18 21.6787 158.648 21.6787C174.115 21.6787 186.654 34.2175 186.654 49.6849C186.654 65.1523 174.115 77.6911 158.648 77.6911Z"
          fill="#FFB9B9"/>
    <path d="M134.255 101.18L180.33 98.4693C175.815 88.1055 174.011 78.1256 175.813 68.6562H141.483C141.561 75.9269 137.942 88.5037 134.255 101.18Z"
          fill="#FFB9B9"/>
    <path d="M105.346 269.217L206.529 276.445L196.14 97.1146L178.523 92.1456L158.648 96.6626L138.773 86.7246L126.125 91.2426L105.346 269.217Z"
          fill="#00B0FF"/>
    <path d="M189.364 398.407L258.476 382.597C237.925 314.449 200.903 158.546 212.853 102.987L176.716 86.7256L189.364 398.407Z"
          fill="#E6E6E6"/>
    <path d="M222.791 201.46L248.99 185.198L226.647 119.759C224.155 113.006 219.382 107.337 213.153 103.731L205.626 99.373L210.143 165.323L222.791 201.46Z"
          fill="#E6E6E6"/>
    <path d="M45.2681 383.5C67.0814 396.12 121.607 403.155 145.548 394.341C147.31 332.768 150.765 158.602 139.676 84.918L99.9253 101.18L103.539 149.965C122.543 191.697 67.3594 337.053 45.2681 383.5Z"
          fill="#E6E6E6"/>
    <path d="M48.4297 193.33L72.8227 185.199L105.346 148.158L99.9247 101.18L45.7197 177.068L48.4297 193.33Z"
          fill="#E6E6E6"/>
    <path d="M124.876 228.494C124.477 230.245 123.399 231.767 121.88 232.725C120.361 233.684 118.523 234 116.771 233.606L96.0646 228.917L99.0572 215.7L119.764 220.388C121.516 220.786 123.039 221.863 123.998 223.383C124.957 224.903 125.272 226.741 124.876 228.494Z"
          fill="#FFB9B9"/>
    <path d="M134.255 42.4578C149.811 36.0613 165.174 35.5984 180.33 41.5544L186.654 18.9688H128.835L134.255 42.4578Z"
          fill="#2F2E41"/>
    <path d="M106.249 213.204L94.5045 234.887C74.7504 229.377 57.6304 212.008 41.2024 191.522L45.7196 177.067L73.7257 184.295L106.249 213.204Z"
          fill="#E6E6E6"/>
    <path d="M114.832 168.485H118.445C118.445 117.375 128.969 81.7563 139.224 81.7563L140.127 78.1426C130.93 78.1426 125.067 92.9666 121.768 105.403C117.295 122.262 114.832 144.665 114.832 168.485Z"
          fill="#3F3D56"/>
    <path d="M197.947 155.837H201.561C201.561 109.028 190.964 79.9492 175.361 79.9492L176.265 83.5629C187.057 83.5629 197.947 105.911 197.947 155.837Z"
          fill="#3F3D56"/>
    <path d="M116.639 178.423C111.649 178.423 107.604 174.378 107.604 169.389C107.604 164.399 111.649 160.354 116.639 160.354C121.628 160.354 125.673 164.399 125.673 169.389C125.673 174.378 121.628 178.423 116.639 178.423Z"
          fill="#3F3D56"/>
    <path d="M212.401 177.519H216.015C216.015 164.567 208.72 154.03 199.753 154.03V157.644C206.728 157.644 212.401 166.56 212.401 177.519Z"
          fill="#3F3D56"/>
    <path d="M183.492 177.519H187.105C187.105 166.56 192.779 157.644 199.753 157.644V154.03C190.787 154.03 183.492 164.567 183.492 177.519Z"
          fill="#3F3D56"/>
    <path d="M185.299 182.036C183.303 182.036 181.685 180.418 181.685 178.422C181.685 176.427 183.303 174.809 185.299 174.809C187.295 174.809 188.913 176.427 188.913 178.422C188.913 180.418 187.295 182.036 185.299 182.036Z"
          fill="#3F3D56"/>
    <path d="M214.209 182.036C212.213 182.036 210.595 180.418 210.595 178.422C210.595 176.427 212.213 174.809 214.209 174.809C216.204 174.809 217.822 176.427 217.822 178.422C217.822 180.418 216.204 182.036 214.209 182.036Z"
          fill="#3F3D56"/>
    <path d="M259.38 145.192L236.833 149.218L185.299 222.494L212.677 216.052L259.38 145.192Z" fill="#00B0FF"/>
    <path d="M263.379 144.296C263.722 144.301 264.058 144.398 264.351 144.578C264.644 144.757 264.884 145.012 265.045 145.316C265.205 145.619 265.282 145.961 265.265 146.304C265.249 146.647 265.141 146.98 264.952 147.267L216.781 220.355C216.512 220.763 216.097 221.053 215.621 221.165L193.208 226.438C192.83 226.527 192.434 226.499 192.073 226.358C191.711 226.217 191.401 225.969 191.183 225.647C190.966 225.326 190.852 224.945 190.855 224.557C190.859 224.169 190.98 223.791 191.204 223.474L244.093 148.272C244.236 148.067 244.419 147.892 244.63 147.758C244.84 147.624 245.076 147.532 245.322 147.489L263.017 144.329C263.137 144.307 263.258 144.296 263.379 144.296Z"
          fill="#3F3D56"/>
    <path d="M233.33 196.552L231.991 210.037L210.864 207.94C209.076 207.763 207.432 206.882 206.293 205.492C205.154 204.102 204.614 202.317 204.791 200.528C204.968 198.74 205.849 197.096 207.239 195.957C208.629 194.818 210.415 194.278 212.203 194.455L233.33 196.552Z"
          fill="#FFB9B9"/>
    <path d="M251.7 194.991C251.67 199.589 249.823 203.989 246.562 207.231C243.302 210.474 238.892 212.296 234.294 212.302H230.82L228.291 191.226L249.231 183.688L251.7 194.991Z"
          fill="#E6E6E6"/>
    <path d="M352.38 490.243C337.961 509.554 308.028 511.587 308.028 511.587C308.028 511.587 301.475 482.31 315.895 462.999C330.314 443.688 360.247 441.655 360.247 441.655C360.247 441.655 366.8 470.932 352.38 490.243Z"
          fill="#E6E6E6"/>
    <path d="M278.924 497.502C288.439 510.245 308.19 511.586 308.19 511.586C308.19 511.586 312.515 492.267 303 479.524C293.485 466.782 273.733 465.44 273.733 465.44C273.733 465.44 269.409 484.759 278.924 497.502Z"
          fill="#E6E6E6"/>
</svg>
