<svg width="520" height="558" viewBox="0 0 520 558" fill="none" xmlns="http://www.w3.org/2000/svg">
    <path d="M258 248H368V371H258V248Z" fill="#CCCCCC"/>
    <path d="M424 556H480L486 508H418L424 556Z" fill="#E6E6E6"/>
    <path d="M311.549 521.232L313.439 547.067C313.525 548.236 313.359 549.411 312.954 550.511C312.548 551.611 311.912 552.612 311.088 553.446C310.264 554.28 309.272 554.929 308.177 555.348C307.082 555.767 305.91 555.947 304.739 555.876L291.469 555.073C290.854 555.035 290.255 554.863 289.715 554.568C289.174 554.273 288.705 553.862 288.34 553.366C287.976 552.869 287.726 552.298 287.607 551.693C287.489 551.089 287.505 550.466 287.654 549.868L295.02 520.405L311.549 521.232Z"
          fill="#E6E6E6"/>
    <path d="M200.554 536.509C184.936 540.163 173.78 545.356 166.451 552.384C163.841 554.867 160.426 556.331 156.827 556.509C152.231 556.751 148.472 556.236 145.648 554.974H145.647C144.924 554.655 144.299 554.148 143.837 553.506C143.376 552.864 143.094 552.111 143.023 551.323C142.937 550.523 143.067 549.715 143.399 548.982C143.731 548.25 144.253 547.619 144.911 547.156L181.951 520.802L197.684 527.096L201.354 530.766C201.751 531.163 202.051 531.648 202.23 532.18C202.408 532.713 202.461 533.28 202.383 533.837C202.306 534.393 202.1 534.924 201.783 535.388C201.465 535.852 201.045 536.236 200.554 536.509H200.554Z"
          fill="#E6E6E6"/>
    <path d="M248.617 114.694L354.49 113.714C354.224 98.2934 350.636 83.1507 342.794 69.6003C337.643 60.7008 337.754 51.0155 338.995 42.8559C340.911 30.2639 336.457 17.3804 326.558 9.36466C318.994 3.22831 309.447 0.0695536 299.716 0.483324L297.66 0.568972C290.963 0.847264 284.444 2.80339 278.701 6.25774C272.957 9.71209 268.174 14.554 264.789 20.3388C261.349 26.5144 259.962 33.6238 260.828 40.6395C261.499 47.2408 259.893 53.9094 256.137 60.6414C249.657 75.424 248.254 94.3402 248.617 114.694Z"
          fill="#2F2E41"/>
    <path d="M177.782 522.176L198.56 527.596L299.744 307.161L293.42 522.176H314.199C336.402 421.017 376.489 304.269 358.467 267.41L250.959 261.086L177.782 522.176Z"
          fill="#00B0FF"/>
    <path d="M300.648 77.6911C285.181 77.6911 272.642 65.1523 272.642 49.6849C272.642 34.2175 285.181 21.6787 300.648 21.6787C316.116 21.6787 328.654 34.2175 328.654 49.6849C328.654 65.1523 316.116 77.6911 300.648 77.6911Z"
          fill="#FFB9B9"/>
    <path d="M276.255 101.18L322.33 98.4693C317.815 88.1055 316.011 78.1256 317.813 68.6562H283.483C283.561 75.9269 279.942 88.5037 276.255 101.18Z"
          fill="#FFB9B9"/>
    <path d="M247.346 269.217L348.529 276.445L338.14 97.1146L320.523 92.1456L300.648 96.6626L280.773 86.7246L268.125 91.2426L247.346 269.217Z"
          fill="#00B0FF"/>
    <path d="M331.365 398.407L400.477 382.597C379.926 314.449 342.903 158.546 354.854 102.987L318.717 86.7256L331.365 398.407Z"
          fill="#E6E6E6"/>
    <path d="M364.791 201.46L390.99 185.198L368.647 119.759C366.155 113.006 361.382 107.337 355.153 103.731L347.626 99.373L352.143 165.323L364.791 201.46Z"
          fill="#E6E6E6"/>
    <path d="M187.267 383.5C209.08 396.12 263.606 403.155 287.547 394.341C289.309 332.768 292.764 158.602 281.675 84.918L241.924 101.18L245.538 149.965C264.542 191.697 209.358 337.053 187.267 383.5Z"
          fill="#E6E6E6"/>
    <path d="M190.43 193.33L214.823 185.199L247.346 148.158L241.925 101.18L187.72 177.068L190.43 193.33Z"
          fill="#E6E6E6"/>
    <path d="M266.876 228.494C266.477 230.245 265.399 231.767 263.88 232.725C262.361 233.684 260.523 234 258.771 233.606L238.065 228.917L241.057 215.7L261.764 220.388C263.516 220.786 265.039 221.863 265.998 223.383C266.957 224.903 267.272 226.741 266.876 228.494Z"
          fill="#FFB9B9"/>
    <path d="M276.256 42.4578C291.811 36.0613 307.175 35.5984 322.33 41.5544L328.654 18.9688H270.835L276.256 42.4578Z"
          fill="#2F2E41"/>
    <path d="M248.249 213.204L236.505 234.887C216.75 229.377 199.63 212.008 183.202 191.522L187.72 177.067L215.726 184.295L248.249 213.204Z"
          fill="#E6E6E6"/>
    <path d="M256.831 168.485H260.445C260.445 117.375 270.968 81.7563 281.224 81.7563L282.127 78.1426C272.93 78.1426 267.066 92.9666 263.767 105.403C259.294 122.262 256.831 144.665 256.831 168.485Z"
          fill="#3F3D56"/>
    <path d="M339.947 155.837H343.561C343.561 109.028 332.964 79.9492 317.361 79.9492L318.265 83.5629C329.057 83.5629 339.947 105.911 339.947 155.837Z"
          fill="#3F3D56"/>
    <path d="M258.638 178.423C253.648 178.423 249.603 174.378 249.603 169.389C249.603 164.399 253.648 160.354 258.638 160.354C263.627 160.354 267.672 164.399 267.672 169.389C267.672 174.378 263.627 178.423 258.638 178.423Z"
          fill="#3F3D56"/>
    <path d="M354.402 177.519H358.016C358.016 164.567 350.721 154.03 341.754 154.03V157.644C348.728 157.644 354.402 166.56 354.402 177.519Z"
          fill="#3F3D56"/>
    <path d="M325.492 177.519H329.106C329.106 166.56 334.78 157.644 341.754 157.644V154.03C332.787 154.03 325.492 164.567 325.492 177.519Z"
          fill="#3F3D56"/>
    <path d="M327.298 182.036C325.303 182.036 323.685 180.418 323.685 178.422C323.685 176.427 325.303 174.809 327.298 174.809C329.294 174.809 330.912 176.427 330.912 178.422C330.912 180.418 329.294 182.036 327.298 182.036Z"
          fill="#3F3D56"/>
    <path d="M356.209 182.036C354.213 182.036 352.595 180.418 352.595 178.422C352.595 176.427 354.213 174.809 356.209 174.809C358.204 174.809 359.822 176.427 359.822 178.422C359.822 180.418 358.204 182.036 356.209 182.036Z"
          fill="#3F3D56"/>
    <path d="M401.38 145.192L378.833 149.218L327.299 222.494L354.677 216.052L401.38 145.192Z" fill="#00B0FF"/>
    <path d="M405.379 144.296C405.722 144.301 406.058 144.398 406.351 144.578C406.644 144.757 406.884 145.012 407.045 145.316C407.205 145.619 407.282 145.961 407.265 146.304C407.249 146.647 407.141 146.98 406.952 147.267L358.781 220.355C358.512 220.763 358.097 221.053 357.621 221.165L335.208 226.438C334.83 226.527 334.434 226.499 334.073 226.358C333.711 226.217 333.401 225.969 333.183 225.647C332.966 225.326 332.852 224.945 332.855 224.557C332.859 224.169 332.98 223.791 333.204 223.474L386.093 148.272C386.236 148.067 386.419 147.892 386.63 147.758C386.84 147.624 387.076 147.532 387.322 147.489L405.017 144.329C405.137 144.307 405.258 144.296 405.379 144.296Z"
          fill="#3F3D56"/>
    <path d="M375.329 196.552L373.99 210.037L352.864 207.94C351.076 207.763 349.431 206.882 348.292 205.492C347.153 204.102 346.613 202.317 346.79 200.528C346.968 198.74 347.849 197.096 349.239 195.957C350.629 194.818 352.414 194.278 354.202 194.455L375.329 196.552Z"
          fill="#FFB9B9"/>
    <path d="M393.699 194.991C393.669 199.589 391.822 203.989 388.561 207.231C385.301 210.474 380.891 212.296 376.293 212.302H372.819L370.29 191.226L391.23 183.688L393.699 194.991Z"
          fill="#E6E6E6"/>
    <path d="M494.38 490.243C479.961 509.554 450.028 511.587 450.028 511.587C450.028 511.587 443.475 482.31 457.895 462.999C472.314 443.688 502.247 441.655 502.247 441.655C502.247 441.655 508.8 470.932 494.38 490.243Z"
          fill="#E6E6E6"/>
    <path d="M420.923 497.502C430.438 510.245 450.189 511.586 450.189 511.586C450.189 511.586 454.514 492.267 444.999 479.524C435.484 466.782 415.732 465.44 415.732 465.44C415.732 465.44 411.408 484.759 420.923 497.502Z"
          fill="#E6E6E6"/>
    <path d="M0 555.656H519.557V557.897H0V555.656Z" fill="#3F3D56"/>
</svg>
