<svg width="221" height="57" viewBox="0 0 221 57" fill="none" xmlns="http://www.w3.org/2000/svg">
    <path d="M31.7754 47.6886L41.6631 34.6988H32.5509V31.209H47.0917V33.9233L37.204 46.9131H47.6733V50.4029H31.7754V47.6886Z"
          fill="#2F4FA7"/>
    <path d="M49.6123 46.9126C49.6123 46.1371 49.8062 45.3616 50.3878 44.5861C50.9695 44.0045 51.5511 43.4228 52.5205 43.0351C53.296 42.6473 54.4592 42.4534 55.4286 42.4534C55.8164 42.4534 56.2041 42.4534 56.5919 42.4534C56.9796 42.4534 57.3674 42.6473 57.7552 42.6473C57.5613 41.2902 56.398 40.5147 54.6531 40.5147C53.6837 40.5147 52.5205 40.9024 51.5511 41.6779L50.1939 38.5759C51.1633 38.1881 51.9388 37.8004 52.9082 37.6065C53.6837 37.4126 54.6531 37.2188 55.4286 37.2188C56.5919 37.2188 57.7552 37.4126 58.7246 37.9943C59.6939 38.382 60.2756 39.1575 60.8572 39.933C61.4388 40.7085 61.6327 41.8718 61.6327 42.8412V50.2085H58.5307L58.3368 48.8514C57.949 49.433 57.3674 49.8208 56.5919 50.0147C55.8164 50.2085 55.2348 50.4024 54.2654 50.4024C52.9082 50.4024 51.9388 50.0147 51.1633 49.433C50.0001 48.8514 49.6123 48.0759 49.6123 46.9126ZM53.296 45.9432C53.296 46.331 53.4899 46.7187 53.8776 46.9126C54.2654 47.1065 54.6531 47.3004 55.2348 47.3004C56.0103 47.3004 56.5919 47.1065 57.1735 46.7187C57.7552 46.331 57.949 45.7494 57.949 45.1677V44.9738C57.5613 44.78 57.3674 44.78 56.9797 44.78C56.5919 44.78 56.2042 44.78 55.8164 44.78C55.0409 44.78 54.4592 44.9739 54.0715 45.1677C53.6837 45.3616 53.296 45.5555 53.296 45.9432Z"
          fill="#2F4FA7"/>
    <path d="M64.5406 37.607H68.0304V38.9641C68.612 38.3825 69.1936 37.9947 69.9691 37.8008C70.7446 37.607 71.5202 37.4131 72.2957 37.4131C73.4589 37.4131 74.6222 37.607 75.5916 38.1886C76.561 38.7702 77.3365 39.5457 77.7242 40.5151C78.3059 41.4845 78.4997 42.6478 78.4997 44.0049C78.4997 45.3621 78.3059 46.5253 77.7242 47.4947C77.1426 48.4641 76.3671 49.2396 75.5916 49.8212C74.6222 50.4029 73.6528 50.5968 72.2957 50.5968C71.5202 50.5968 70.7446 50.4029 69.9691 50.209C69.1936 50.0151 68.612 49.6274 68.0304 49.0457V56.8008H64.3467C64.5406 56.8008 64.5406 37.607 64.5406 37.607ZM71.3263 40.5151C70.3569 40.5151 69.5814 40.9029 68.9997 41.4845C68.4181 42.0661 68.0304 43.0355 68.0304 44.0049C68.0304 44.9743 68.4181 45.7498 68.9997 46.5253C69.5814 47.107 70.3569 47.4947 71.3263 47.4947C72.2957 47.4947 73.0712 47.107 73.6528 46.5253C74.2344 45.9437 74.6222 44.9743 74.6222 44.0049C74.6222 43.0355 74.2344 42.26 73.6528 41.4845C73.0712 40.9029 72.2957 40.5151 71.3263 40.5151Z"
          fill="#2F4FA7"/>
    <path d="M90.3267 46.9126C90.3267 46.1371 90.5205 45.3616 91.1022 44.5861C91.6838 44.0045 92.2654 43.4228 93.2348 43.0351C94.0103 42.6473 95.1736 42.4534 96.143 42.4534C96.5307 42.4534 96.9185 42.4534 97.3062 42.4534C97.694 42.4534 98.0818 42.6473 98.4695 42.6473C98.2756 41.2902 97.1124 40.5147 95.3675 40.5147C94.3981 40.5147 93.2348 40.9024 92.2654 41.6779L90.9083 38.5759C91.8777 38.1881 92.6532 37.8004 93.6226 37.6065C94.3981 37.4126 95.3675 37.2188 96.143 37.2188C97.3063 37.2188 98.4695 37.4126 99.4389 37.9943C100.408 38.382 100.99 39.1575 101.572 39.933C102.153 40.7085 102.347 41.8718 102.347 42.8412V50.2085H99.245L99.0512 48.8514C98.6634 49.433 98.0818 49.8208 97.3062 50.0147C96.5307 50.4024 95.9491 50.4024 94.9797 50.4024C93.6226 50.4024 92.6532 50.0147 91.8777 49.433C90.7144 48.8514 90.3267 48.0759 90.3267 46.9126ZM94.0103 45.9432C94.0103 46.331 94.2042 46.7187 94.592 46.9126C94.9797 47.1065 95.3675 47.3004 95.9491 47.3004C96.7246 47.3004 97.3063 47.1065 97.8879 46.7187C98.4695 46.331 98.6634 45.7494 98.6634 45.1677V44.9738C98.2756 44.78 98.0818 44.78 97.694 44.78C97.3063 44.78 96.9185 44.78 96.5308 44.78C95.7552 44.78 95.1736 44.9739 94.7859 45.1677C94.2042 45.1677 94.0103 45.5555 94.0103 45.9432Z"
          fill="#2F4FA7"/>
    <path d="M119.99 31.0146H126.582C128.908 31.0146 130.847 31.5963 132.01 32.5657C133.367 33.7289 133.949 35.0861 133.949 36.831C133.949 38.1881 133.561 39.1575 132.98 40.1269C132.204 41.0963 131.235 41.6779 130.071 42.2595L134.724 50.2085H130.265L126 42.8412H123.867V50.2085H119.99C119.99 50.4024 119.99 31.0146 119.99 31.0146ZM126 39.7391C127.357 39.7391 128.326 39.5453 128.908 38.9636C129.49 38.5759 129.877 37.8004 129.877 37.0249C129.877 36.2493 129.49 35.4738 128.908 35.0861C128.326 34.6983 127.163 34.3106 126 34.3106H123.867V39.7391H126Z"
          fill="#279EED"/>
    <path d="M139.184 44.9738C139.378 45.7494 139.766 46.331 140.541 46.7187C141.123 47.1065 141.898 47.3004 142.674 47.3004C143.643 47.3004 144.225 47.1065 144.807 46.9126C145.388 46.7187 145.97 46.331 146.358 45.7494L148.684 48.4637C147.715 49.2392 146.745 49.8208 145.776 50.0147C144.807 50.4024 143.837 50.4024 143.062 50.4024C141.705 50.4024 140.347 50.2085 139.378 49.6269C138.215 49.0453 137.439 48.2698 136.858 47.3004C136.276 46.331 135.888 45.1677 135.888 43.8106C135.888 42.4534 136.276 41.4841 136.858 40.3208C137.439 39.3514 138.215 38.5759 139.184 37.9943C140.153 37.4126 141.317 37.2188 142.674 37.2188C144.031 37.2188 145.194 37.4126 146.164 37.9943C147.133 38.5759 147.909 39.3514 148.49 40.3208C149.072 41.2902 149.46 42.4534 149.46 43.8106V44.9738C149.266 44.9738 139.184 44.9738 139.184 44.9738ZM145.582 43.0351C145.388 42.2596 145 41.6779 144.419 41.2902C143.837 40.9024 143.256 40.5147 142.48 40.5147C141.705 40.5147 140.929 40.7085 140.347 41.2902C139.766 41.6779 139.378 42.4534 139.184 43.0351H145.582Z"
          fill="#279EED"/>
    <path d="M163.03 48.658C162.449 49.2396 161.673 49.8212 160.704 50.0151C159.928 50.4029 158.959 50.5968 157.796 50.5968C156.438 50.5968 155.275 50.4029 154.112 49.8212C152.949 49.2396 152.173 48.4641 151.591 47.4947C151.01 46.5253 150.622 45.3621 150.622 44.0049C150.622 42.6478 151.01 41.4845 151.591 40.5151C152.173 39.5457 153.142 38.7702 154.112 38.1886C155.275 37.607 156.438 37.4131 157.796 37.4131C158.765 37.4131 159.734 37.607 160.704 37.9947C161.479 38.3825 162.255 38.7702 163.03 39.3519L160.51 41.8723C159.928 41.0968 159.153 40.709 157.989 40.709C157.02 40.709 156.245 41.0968 155.663 41.6784C155.081 42.26 154.694 43.2294 154.694 44.1988C154.694 45.1682 155.081 45.9437 155.663 46.7192C156.245 47.3008 157.02 47.6886 157.989 47.6886C158.959 47.6886 159.928 47.3008 160.51 46.5253C160.316 46.3315 163.03 48.658 163.03 48.658Z"
          fill="#279EED"/>
    <path d="M168.071 44.9738C168.265 45.7494 168.653 46.331 169.428 46.7187C170.01 47.1065 170.786 47.3004 171.561 47.3004C172.53 47.3004 173.112 47.1065 173.694 46.9126C174.275 46.7187 174.857 46.331 175.245 45.7494L177.571 48.4637C176.602 49.2392 175.633 49.8208 174.663 50.0147C173.694 50.4024 172.724 50.4024 171.949 50.4024C170.592 50.4024 169.235 50.2085 168.265 49.6269C167.102 49.0453 166.326 48.2698 165.745 47.3004C165.163 46.331 164.775 45.1677 164.775 43.8106C164.775 42.4534 165.163 41.4841 165.745 40.3208C166.326 39.3514 167.102 38.5759 168.071 37.9943C169.041 37.4126 170.204 37.2188 171.561 37.2188C172.918 37.2188 174.082 37.4126 175.051 37.9943C176.02 38.5759 176.796 39.3514 177.377 40.3208C177.959 41.2902 178.347 42.4534 178.347 43.8106V44.9738C178.153 44.9738 168.071 44.9738 168.071 44.9738ZM174.275 43.0351C174.082 42.2596 173.694 41.6779 173.112 41.2902C172.53 40.9024 171.949 40.5147 171.173 40.5147C170.398 40.5147 169.622 40.7085 169.041 41.2902C168.459 41.6779 168.071 42.4534 167.877 43.0351H174.275Z"
          fill="#279EED"/>
    <path d="M180.48 37.4126H183.969V38.7698C184.551 38.1881 185.133 37.8004 185.908 37.6065C186.684 37.4126 187.459 37.2188 188.235 37.2188C189.398 37.2188 190.561 37.4126 191.531 37.9943C192.5 38.5759 193.275 39.3514 193.663 40.3208C194.245 41.2902 194.439 42.4534 194.439 43.8106C194.439 45.1677 194.245 46.331 193.663 47.3004C193.082 48.2698 192.306 49.0453 191.531 49.6269C190.561 50.2085 189.592 50.4024 188.235 50.4024C187.459 50.4024 186.684 50.2085 185.908 50.0147C185.133 49.8208 184.551 49.433 183.969 48.8514V56.6065H180.286C180.48 56.8004 180.48 37.4126 180.48 37.4126ZM187.459 40.5147C186.49 40.5147 185.714 40.9024 185.133 41.4841C184.551 42.0657 184.163 43.0351 184.163 44.0045C184.163 44.9738 184.551 45.7494 185.133 46.5249C185.714 47.1065 186.49 47.4943 187.459 47.4943C188.428 47.4943 189.204 47.1065 189.786 46.5249C190.367 45.9432 190.755 44.9738 190.755 44.0045C190.755 43.0351 190.367 42.2596 189.786 41.4841C189.204 40.7085 188.428 40.5147 187.459 40.5147Z"
          fill="#279EED"/>
    <path d="M196.183 37.4131H198.316V34.1172H201.999V37.4131H205.101V40.709H201.999V45.3621C201.999 45.9437 202.193 46.5254 202.581 46.7192C202.969 47.107 203.55 47.3009 204.132 47.3009C204.52 47.3009 205.101 47.107 205.489 46.9131V50.0151C204.714 50.4029 203.938 50.4029 203.163 50.4029C201.612 50.4029 200.448 50.0151 199.673 49.2396C198.897 48.4641 198.51 47.3009 198.51 45.7498V40.5151H196.377C196.183 40.709 196.183 37.4131 196.183 37.4131Z"
          fill="#279EED"/>
    <path d="M87.2243 36.8311L88.9692 35.0862L91.1019 37.2188L87.2243 41.0964V50.5964H83.5407V44.78L81.2141 46.9127L79.4692 44.5862L83.3468 40.7086V30.8209H87.2243C87.2243 30.627 87.2243 36.8311 87.2243 36.8311Z"
          fill="#2F4FA7"/>
    <path d="M218.092 50.0151C217.898 50.209 217.704 50.209 217.316 50.209C216.347 50.5968 215.378 50.5968 214.602 50.5968C213.245 50.5968 211.888 50.4029 210.919 49.8212C209.755 49.2396 208.98 48.4641 208.398 47.4947C207.816 46.5253 207.429 45.3621 207.429 44.0049C207.429 42.6478 207.816 41.6784 208.398 40.5151C208.98 39.5457 209.755 38.7702 210.725 38.1886C211.694 37.607 212.857 37.4131 214.214 37.4131C215.572 37.4131 216.735 37.607 217.704 38.1886C218.674 38.7702 219.449 39.5457 220.031 40.5151C220.612 41.4845 221 42.6478 221 44.0049V45.1682H210.919C211.112 45.9437 211.5 46.5253 212.276 46.9131C212.857 47.3008 213.633 47.4947 214.408 47.4947C215.378 47.4947 215.959 47.3008 216.541 47.107C217.123 46.9131 217.704 46.5253 218.092 45.9437H220.806V52.7294H218.092C218.092 52.5355 218.092 50.0151 218.092 50.0151ZM216.929 43.0355C216.735 42.26 216.347 41.6784 215.765 41.2906C215.184 40.9029 214.602 40.5151 213.827 40.5151C213.051 40.5151 212.276 40.709 211.694 41.2906C211.112 41.6784 210.725 42.4539 210.531 43.0355C210.725 43.0355 216.929 43.0355 216.929 43.0355Z"
          fill="#279EED"/>
    <path d="M116.499 48.6574C115.918 49.239 115.142 49.8207 114.173 50.0145C113.397 50.4023 112.428 50.5962 111.265 50.5962C109.908 50.5962 108.744 50.4023 107.581 49.8207C106.418 49.239 105.642 48.4635 105.061 47.4941C104.479 46.5247 104.091 45.3615 104.091 44.0043C104.091 42.6472 104.479 41.4839 105.061 40.5145C105.642 39.5451 106.612 38.7696 107.581 38.188C108.744 37.6064 109.908 37.4125 111.265 37.4125C112.234 37.4125 113.204 37.6064 114.173 37.9941C114.948 38.3819 115.724 38.7696 116.499 39.3513L113.979 41.8717C113.397 41.0962 112.622 40.7084 111.459 40.7084C110.489 40.7084 109.714 41.0962 109.132 41.6778C108.551 42.2594 108.163 43.2288 108.163 44.1982C108.163 45.1676 108.551 45.9431 109.132 46.7186C109.714 47.3002 110.489 47.688 111.459 47.688C112.428 47.688 113.397 47.3002 113.979 46.5247L116.499 48.6574ZM113.204 33.1472L111.459 31.79L109.326 34.6982L111.071 36.2492L113.204 33.1472Z"
          fill="#2F4FA7"/>
    <path fill-rule="evenodd" clip-rule="evenodd"
          d="M30.7137 14.2609H39.6863C40.8941 14.2609 41.9294 14.747 42.7921 15.3953C43.6549 16.2055 44 17.1779 44 18.3123V26.9012H28.8157V36.9486C28.8157 38.083 28.298 39.0553 27.6078 39.8656C26.7451 40.6759 25.7098 41 24.502 41H15.3569V29.4941C20.5333 21.7154 26.0549 17.0158 30.7137 14.2609ZM28.9882 13.4506C18.8078 17.664 12.9412 23.8221 10.5255 26.9012H4.14118C1.89804 26.9012 0 25.1186 0 23.0119V14.2609H15.1843V3.88933C15.1843 1.78261 17.0824 0 19.3255 0H28.8157V13.4506H28.9882Z"
          fill="#279EED"/>
</svg>
