<svg width="220" height="587" viewBox="0 0 220 587" fill="none" xmlns="http://www.w3.org/2000/svg">
    <path d="M143.457 95.0431L74.9545 95.7105C71.7347 79.8591 60.9164 38.2677 70.6592 26.9232C71.1033 22.6534 73.177 18.7195 76.4486 15.9402C79.7203 13.1609 83.9378 11.7505 88.2232 12.0026C98.8406 -4.6172 116.525 -2.12184 128.478 8.25797C140.508 12.4087 145.043 19.7828 143.457 29.7897C152.365 37.5877 154.009 47.0751 150.01 57.8746L143.457 95.0431Z"
          fill="#2F2E41"/>
    <path d="M136.862 137.242L87.4391 130.399L77.5547 115.952C91.1708 106.92 95.989 94.3051 89.7202 77.1744L123.936 76.4141C122.333 91.6692 127.377 103.481 141.424 110.63L136.862 137.242Z"
          fill="#FFB9B9"/>
    <path d="M136.102 586.605L118.194 584.808L100.366 394.238L93.6279 584.194L76.0339 583.564L46.3809 320.484H159.672L136.102 586.605Z"
          fill="#00B0FF"/>
    <path d="M108.729 89.3412C127.626 89.3412 142.945 74.0224 142.945 55.1257C142.945 36.229 127.626 20.9102 108.729 20.9102C89.8325 20.9102 74.5137 36.229 74.5137 55.1257C74.5137 74.0224 89.8325 89.3412 108.729 89.3412Z"
          fill="#FFB9B9"/>
    <path d="M176.4 326.568L38.0176 328.089C58.5543 249.908 70.8391 177.284 49.4228 127.358L83.6383 110.63C100.136 127.838 118.51 126.064 138.383 109.109L171.078 117.473C165.478 182.944 167.988 253.064 176.4 326.568Z"
          fill="#00B0FF"/>
    <path d="M0 245.972L85.919 280.188L105.128 285.837C105.988 286.09 106.889 286.167 107.779 286.062C108.668 285.958 109.527 285.674 110.304 285.229C111.082 284.785 111.761 284.187 112.302 283.473C112.842 282.759 113.233 281.943 113.45 281.074C113.831 279.551 113.66 277.941 112.967 276.532C112.275 275.122 111.106 274.004 109.667 273.374L89.7207 267.262L29.6534 232.286L42.1992 199.211L15.9672 185.145L0 245.972Z"
          fill="#FFB9B9"/>
    <path d="M0.760742 183.623C17.1077 190 30.1095 200.884 40.2987 215.557L72.2332 169.176L49.4229 127.357L0.760742 183.623Z"
          fill="#00B0FF"/>
    <path d="M147.292 49.5799C133.405 46.0018 119.752 45.5105 106.479 50.0491C98.0247 54.1438 87.8715 53.7666 76.5801 50.3927V16.2559L137.539 17.8814L147.292 49.5799Z"
          fill="#2F2E41"/>
    <path d="M85.6338 206.105C82.9471 206.108 80.3712 207.177 78.4714 209.077C76.5716 210.977 75.503 213.553 75.5 216.239L79.5 299.972C79.503 302.658 80.5716 305.234 82.4714 307.134C84.3712 309.034 86.9471 310.102 89.6338 310.105H135.366C138.053 310.102 140.629 309.034 142.529 307.134C144.428 305.234 145.497 302.658 145.5 299.972L149.5 216.239C149.497 213.553 148.428 210.977 146.529 209.077C144.629 207.177 142.053 206.108 139.366 206.105H85.6338Z"
          fill="#3F3D56"/>
    <path d="M215.39 239.646L140.5 269.466L134.85 271.716C134.67 271.786 134.49 271.846 134.3 271.906L115.37 277.476C112.95 278.186 109.6 274.926 107.64 272.676C106.669 271.591 106.119 270.195 106.09 268.74C106.061 267.285 106.554 265.868 107.48 264.746C107.741 264.444 108.029 264.166 108.34 263.916C109.069 263.348 109.928 262.97 110.84 262.816L129.75 259.096C130.428 258.963 131.08 258.719 131.68 258.376L140.5 253.236L186.29 226.576C187.563 225.836 188.533 224.667 189.025 223.279C189.518 221.891 189.502 220.373 188.98 218.996L180.24 195.946C179.704 194.535 179.699 192.978 180.227 191.565C180.756 190.152 181.78 188.979 183.11 188.266L197.59 180.506C198.417 180.062 199.334 179.811 200.273 179.773C201.211 179.735 202.146 179.91 203.007 180.285C203.867 180.661 204.632 181.227 205.242 181.94C205.852 182.654 206.292 183.497 206.53 184.406L219.1 232.286C219.486 233.754 219.322 235.313 218.639 236.669C217.955 238.024 216.8 239.083 215.39 239.646Z"
          fill="#FFB9B9"/>
    <path d="M219.74 175.259C203.393 181.636 190.391 192.52 180.202 207.193L148.268 160.812L171.078 117.473L219.74 175.259Z"
          fill="#00B0FF"/>
    <path d="M131.5 85.578C116.532 91.8042 100.837 91.5513 84.5 85.578C89.2537 77.464 82.148 71.1091 78.5 62.9182L139.5 61.1055C134.835 68.2211 127.952 76.628 131.5 85.578Z"
          fill="white"/>
    <path d="M138.854 62.4603L138.146 61.7533L139.146 60.7533L145.12 53.7812L145.88 54.4313L139.88 61.4313L138.854 62.4603Z"
          fill="white"/>
    <path d="M74.3202 58.2216L73.6797 58.9902L79.6797 63.9902L80.3202 63.2216L74.3202 58.2216Z" fill="white"/>
    <path d="M140.578 68.3395L130.075 84.8379L130.919 85.375L141.421 68.8766L140.578 68.3395Z" fill="white"/>
    <path d="M75.422 68.338L74.5781 68.875L85.0781 85.375L85.922 84.838L75.422 68.338Z" fill="white"/>
    <path d="M142.5 251.821V269.938L136.194 272.449C135.993 272.528 135.792 272.594 135.58 272.661L114.449 278.879C111.748 279.671 108.009 276.032 105.821 273.521C104.738 272.311 104.124 270.752 104.091 269.128C104.058 267.504 104.609 265.922 105.642 264.669C105.934 264.333 106.255 264.022 106.602 263.743C107.417 263.109 108.375 262.687 109.393 262.515L130.501 258.362C131.258 258.214 131.986 257.942 132.655 257.559L142.5 251.821Z"
          fill="white"/>
    <path d="M151.64 187.202H148.026C148.026 136.091 137.502 100.473 127.247 100.473L126.344 96.8594C135.541 96.8594 141.404 111.683 144.703 124.12C149.176 140.979 151.64 163.382 151.64 187.202Z"
          fill="#3F3D56"/>
    <path d="M68.5248 174.554H64.9111C64.9111 127.745 75.5074 98.666 91.1105 98.666L90.207 102.28C79.4144 102.28 68.5248 124.628 68.5248 174.554Z"
          fill="#3F3D56"/>
    <path d="M149.833 197.14C154.823 197.14 158.867 193.095 158.867 188.106C158.867 183.116 154.823 179.071 149.833 179.071C144.844 179.071 140.799 183.116 140.799 188.106C140.799 193.095 144.844 197.14 149.833 197.14Z"
          fill="#3F3D56"/>
    <path d="M54.0697 196.236H50.4561C50.4561 183.284 57.7509 172.747 66.7177 172.747V176.361C59.7435 176.361 54.0697 185.277 54.0697 196.236Z"
          fill="#3F3D56"/>
    <path d="M82.9794 196.236H79.3657C79.3657 185.277 73.692 176.361 66.7178 176.361V172.747C75.6846 172.747 82.9794 183.284 82.9794 196.236Z"
          fill="#3F3D56"/>
    <path d="M81.1723 200.753C83.1681 200.753 84.786 199.135 84.786 197.139C84.786 195.143 83.1681 193.525 81.1723 193.525C79.1765 193.525 77.5586 195.143 77.5586 197.139C77.5586 199.135 79.1765 200.753 81.1723 200.753Z"
          fill="#3F3D56"/>
    <path d="M52.2631 200.753C54.2589 200.753 55.8768 199.135 55.8768 197.139C55.8768 195.143 54.2589 193.525 52.2631 193.525C50.2673 193.525 48.6494 195.143 48.6494 197.139C48.6494 199.135 50.2673 200.753 52.2631 200.753Z"
          fill="#3F3D56"/>
</svg>
