<svg width="994" height="517" viewBox="0 0 994 517" fill="none" xmlns="http://www.w3.org/2000/svg">
<path d="M39.4214 -457.244H1320V488.869H546.422C266.413 488.869 39.4214 261.877 39.4214 -18.1311V-457.244Z" fill="#E8F8FF"/>
<path d="M39 0H994V493H532C259.724 493 39 272.276 39 0Z" fill="#E8F8FF"/>
<g clip-path="url(#clip0)">
<path d="M149.216 481.503C149.216 481.503 115.338 455.891 108.938 423.313C106.343 409.63 99.3817 397.158 89.0984 387.766C84.179 383.348 78.8658 379.389 73.2251 375.939" stroke="#535461" stroke-width="2" stroke-miterlimit="10"/>
<path d="M69.0797 355.415C72.0487 359.431 73.3914 376.45 73.3914 376.45C73.3914 376.45 57.5182 370.198 54.5431 366.188C53.1145 364.261 52.5102 361.844 52.8631 359.471C53.216 357.098 54.4972 354.962 56.4249 353.533C58.3525 352.105 60.7688 351.5 63.142 351.853C65.5153 352.206 67.6511 353.487 69.0797 355.415Z" fill="#00B0FF"/>
<path d="M97.5495 368.769C97.8575 373.752 89.7453 388.77 89.7453 388.77C89.7453 388.77 79.8099 374.886 79.4958 369.903C79.3763 367.527 80.1977 365.2 81.7821 363.426C83.3664 361.652 85.586 360.573 87.9599 360.424C90.3339 360.275 92.671 361.067 94.4648 362.629C96.2586 364.191 97.3647 366.397 97.5434 368.769H97.5495Z" fill="#00B0FF"/>
<path d="M125.144 407.156C122.902 411.616 108.31 420.485 108.31 420.485C108.31 420.485 106.752 403.485 108.994 399.025C110.098 396.928 111.98 395.348 114.237 394.625C116.494 393.902 118.945 394.094 121.062 395.16C123.178 396.226 124.792 398.08 125.556 400.323C126.319 402.567 126.171 405.02 125.144 407.156Z" fill="#00B0FF"/>
<path d="M139.49 440.886C138.03 445.659 125.15 456.864 125.15 456.864C125.15 456.864 120.734 440.374 122.194 435.594C122.895 433.301 124.48 431.38 126.597 430.254C128.715 429.128 131.194 428.89 133.487 429.592C135.781 430.294 137.702 431.878 138.828 433.996C139.953 436.114 140.192 438.592 139.49 440.886Z" fill="#00B0FF"/>
<path d="M75.0607 400.842C79.9884 401.507 95.566 394.473 95.566 394.473C95.566 394.473 82.4215 383.583 77.4691 382.917C75.0922 382.598 72.6858 383.236 70.7792 384.691C68.8726 386.146 67.6221 388.299 67.3027 390.675C66.9834 393.052 67.6213 395.459 69.0762 397.365C70.5311 399.272 72.6838 400.523 75.0607 400.842Z" fill="#00B0FF"/>
<path d="M92.3385 440.085C97.2661 439.241 109.998 427.877 109.998 427.877C109.998 427.877 94.1925 421.422 89.271 422.266C88.0927 422.459 86.9643 422.883 85.9509 423.515C84.9376 424.146 84.0594 424.972 83.367 425.945C82.6746 426.918 82.1817 428.018 81.9168 429.183C81.6518 430.347 81.6202 431.552 81.8235 432.729C82.0269 433.905 82.4612 435.03 83.1016 436.038C83.7419 437.046 84.5755 437.917 85.5542 438.601C86.533 439.284 87.6375 439.768 88.804 440.023C89.9705 440.277 91.176 440.299 92.3508 440.085H92.3385Z" fill="#00B0FF"/>
<path d="M114.359 475.927C119.354 475.927 133.829 466.879 133.829 466.879C133.829 466.879 119.348 457.843 114.353 457.843C111.955 457.843 109.655 458.795 107.959 460.491C106.263 462.187 105.311 464.487 105.311 466.885C105.311 469.283 106.263 471.583 107.959 473.279C109.655 474.975 111.955 475.927 114.353 475.927H114.359Z" fill="#00B0FF"/>
<path d="M478.323 259.985C478.323 259.985 499.204 222.997 530.679 212.341C543.896 207.951 555.334 199.395 563.276 187.955C567.001 182.486 570.215 176.686 572.879 170.628" stroke="#535461" stroke-width="2" stroke-miterlimit="10"/>
<path d="M592.639 163.852C589.054 167.326 572.367 170.924 572.367 170.924C572.367 170.924 576.464 154.354 580.048 150.874C581.779 149.254 584.076 148.378 586.446 148.435C588.816 148.492 591.068 149.477 592.719 151.179C594.369 152.88 595.285 155.162 595.271 157.532C595.256 159.902 594.31 162.172 592.639 163.852Z" fill="#00B0FF"/>
<path d="M583.202 193.806C578.275 194.779 562.34 188.73 562.34 188.73C562.34 188.73 574.782 177.027 579.679 176.072C580.855 175.811 582.071 175.788 583.256 176.003C584.441 176.219 585.571 176.669 586.579 177.327C587.588 177.985 588.455 178.838 589.13 179.836C589.804 180.834 590.272 181.956 590.507 183.138C590.742 184.319 590.738 185.535 590.496 186.715C590.255 187.895 589.779 189.015 589.099 190.008C588.419 191.002 587.546 191.85 586.534 192.502C585.521 193.154 584.389 193.597 583.202 193.806Z" fill="#00B0FF"/>
<path d="M548.856 226.255C544.138 224.623 533.414 211.343 533.414 211.343C533.414 211.343 550.045 207.536 554.776 209.169C555.912 209.546 556.963 210.145 557.866 210.931C558.769 211.717 559.507 212.675 560.037 213.749C560.567 214.823 560.879 215.991 560.953 217.186C561.028 218.381 560.865 219.579 560.473 220.711C560.081 221.842 559.468 222.885 558.67 223.777C557.872 224.67 556.904 225.396 555.824 225.911C554.743 226.427 553.571 226.723 552.375 226.782C551.179 226.841 549.983 226.662 548.856 226.255Z" fill="#00B0FF"/>
<path d="M517.295 244.955C512.367 244.142 499.58 232.839 499.58 232.839C499.58 232.839 515.342 226.273 520.264 227.086C522.632 227.476 524.749 228.791 526.149 230.741C527.548 232.692 528.116 235.118 527.726 237.487C527.336 239.856 526.022 241.973 524.071 243.372C522.121 244.771 519.694 245.339 517.325 244.949L517.295 244.955Z" fill="#00B0FF"/>
<path d="M548.425 175.777C548.419 180.772 557.48 195.266 557.48 195.266C557.48 195.266 566.528 180.791 566.528 175.802C566.56 174.595 566.349 173.394 565.909 172.27C565.469 171.145 564.808 170.121 563.966 169.256C563.123 168.391 562.116 167.704 561.004 167.234C559.892 166.765 558.696 166.523 557.489 166.523C556.282 166.523 555.087 166.765 553.974 167.234C552.862 167.704 551.855 168.391 551.012 169.256C550.17 170.121 549.509 171.145 549.069 172.27C548.629 173.394 548.418 174.595 548.45 175.802L548.425 175.777Z" fill="#00B0FF"/>
<path d="M511.819 198.111C513.31 202.879 526.269 213.997 526.269 213.997C526.269 213.997 530.581 197.477 529.078 192.709C528.299 190.5 526.693 188.68 524.598 187.632C522.503 186.584 520.084 186.389 517.848 187.089C515.613 187.789 513.737 189.329 512.614 191.385C511.492 193.441 511.211 195.852 511.831 198.111H511.819Z" fill="#00B0FF"/>
<path d="M479.253 224.703C479.918 229.631 490.808 242.794 490.808 242.794C490.808 242.794 497.836 227.241 497.171 222.295C497.039 221.096 496.669 219.936 496.082 218.883C495.495 217.83 494.704 216.905 493.754 216.162C492.804 215.419 491.716 214.874 490.552 214.558C489.389 214.242 488.174 214.162 486.979 214.323C485.784 214.483 484.633 214.881 483.594 215.493C482.555 216.105 481.65 216.919 480.93 217.886C480.21 218.853 479.691 219.954 479.403 221.125C479.115 222.296 479.064 223.512 479.253 224.703Z" fill="#00B0FF"/>
<path opacity="0.25" d="M592.639 163.852C589.054 167.326 572.367 170.924 572.367 170.924C572.367 170.924 576.464 154.354 580.048 150.874C581.779 149.254 584.076 148.378 586.446 148.435C588.816 148.492 591.068 149.477 592.719 151.179C594.369 152.88 595.285 155.162 595.271 157.532C595.256 159.902 594.31 162.172 592.639 163.852Z" fill="black"/>
<path opacity="0.25" d="M583.202 193.806C578.275 194.779 562.34 188.73 562.34 188.73C562.34 188.73 574.782 177.027 579.679 176.072C580.855 175.811 582.071 175.788 583.256 176.003C584.441 176.219 585.571 176.669 586.579 177.327C587.588 177.985 588.455 178.838 589.13 179.836C589.804 180.834 590.272 181.956 590.507 183.138C590.742 184.319 590.738 185.535 590.496 186.715C590.255 187.895 589.779 189.015 589.099 190.008C588.419 191.002 587.546 191.85 586.534 192.502C585.521 193.154 584.389 193.597 583.202 193.806Z" fill="black"/>
<path opacity="0.25" d="M548.856 226.255C544.138 224.623 533.414 211.343 533.414 211.343C533.414 211.343 550.045 207.536 554.776 209.169C555.912 209.546 556.963 210.145 557.866 210.931C558.769 211.717 559.507 212.675 560.037 213.749C560.567 214.823 560.879 215.991 560.953 217.186C561.028 218.381 560.865 219.579 560.473 220.711C560.081 221.842 559.468 222.885 558.67 223.777C557.872 224.67 556.904 225.396 555.824 225.911C554.743 226.427 553.571 226.723 552.375 226.782C551.179 226.841 549.983 226.662 548.856 226.255Z" fill="black"/>
<path opacity="0.25" d="M517.295 244.955C512.367 244.142 499.58 232.839 499.58 232.839C499.58 232.839 515.342 226.273 520.264 227.086C522.632 227.476 524.749 228.791 526.149 230.741C527.548 232.692 528.116 235.118 527.726 237.487C527.336 239.856 526.022 241.973 524.071 243.372C522.121 244.771 519.694 245.339 517.325 244.949L517.295 244.955Z" fill="black"/>
<path opacity="0.25" d="M548.425 175.777C548.419 180.772 557.48 195.266 557.48 195.266C557.48 195.266 566.528 180.791 566.528 175.802C566.56 174.595 566.349 173.394 565.909 172.27C565.469 171.145 564.808 170.121 563.966 169.256C563.123 168.391 562.116 167.704 561.004 167.234C559.892 166.765 558.696 166.523 557.489 166.523C556.282 166.523 555.087 166.765 553.974 167.234C552.862 167.704 551.855 168.391 551.012 169.256C550.17 170.121 549.509 171.145 549.069 172.27C548.629 173.394 548.418 174.595 548.45 175.802L548.425 175.777Z" fill="black"/>
<path opacity="0.25" d="M511.819 198.111C513.31 202.879 526.269 213.997 526.269 213.997C526.269 213.997 530.581 197.477 529.078 192.709C528.299 190.5 526.693 188.68 524.598 187.632C522.503 186.584 520.084 186.389 517.848 187.089C515.613 187.789 513.737 189.329 512.614 191.385C511.492 193.441 511.211 195.852 511.831 198.111H511.819Z" fill="black"/>
<path opacity="0.25" d="M479.253 224.703C479.918 229.631 490.808 242.794 490.808 242.794C490.808 242.794 497.836 227.241 497.171 222.295C497.039 221.096 496.669 219.936 496.082 218.883C495.495 217.83 494.704 216.905 493.754 216.162C492.804 215.419 491.716 214.874 490.552 214.558C489.389 214.242 488.174 214.162 486.979 214.323C485.784 214.483 484.633 214.881 483.594 215.493C482.555 216.105 481.65 216.919 480.93 217.886C480.21 218.853 479.691 219.954 479.403 221.125C479.115 222.296 479.064 223.512 479.253 224.703Z" fill="black"/>
<path d="M479.524 259.252C479.524 259.252 483.626 216.972 508.055 194.49C518.359 185.12 525.348 172.663 527.975 158.986C529.171 152.484 529.767 145.886 529.756 139.275" stroke="#535461" stroke-width="2" stroke-miterlimit="10"/>
<path d="M545.068 125.01C543.22 129.642 529.398 139.694 529.398 139.694C529.398 139.694 526.429 122.885 528.296 118.253C529.194 116.028 530.939 114.252 533.147 113.315C535.355 112.377 537.846 112.356 540.07 113.254C542.294 114.153 544.07 115.898 545.007 118.106C545.945 120.314 545.967 122.804 545.068 125.028V125.01Z" fill="#00B0FF"/>
<path d="M548.585 156.251C544.502 159.122 527.458 160.064 527.458 160.064C527.458 160.064 534.098 144.333 538.182 141.462C539.15 140.737 540.254 140.214 541.429 139.924C542.603 139.633 543.824 139.581 545.018 139.771C546.213 139.961 547.358 140.389 548.384 141.029C549.411 141.669 550.298 142.508 550.995 143.497C551.691 144.487 552.181 145.606 552.437 146.788C552.693 147.97 552.71 149.192 552.485 150.381C552.26 151.569 551.799 152.701 551.13 153.708C550.46 154.715 549.595 155.578 548.585 156.245V156.251Z" fill="#00B0FF"/>
<path d="M530.316 199.848C525.339 200.267 510.15 192.457 510.15 192.457C510.15 192.457 523.824 182.232 528.801 181.813C531.191 181.612 533.563 182.369 535.395 183.917C537.227 185.465 538.369 187.677 538.57 190.067C538.771 192.457 538.014 194.829 536.466 196.661C534.918 198.493 532.706 199.635 530.316 199.836V199.848Z" fill="#00B0FF"/>
<path d="M509.059 229.717C504.224 230.949 487.938 225.855 487.938 225.855C487.938 225.855 499.684 213.468 504.52 212.211C506.841 211.609 509.306 211.954 511.374 213.17C513.441 214.386 514.94 216.373 515.542 218.694C516.144 221.016 515.799 223.481 514.584 225.548C513.368 227.615 511.381 229.115 509.059 229.717Z" fill="#00B0FF"/>
<path d="M509.491 153.862C511.511 158.426 525.641 168.029 525.641 168.029C525.641 168.029 528.043 151.127 526.023 146.562C525.016 144.427 523.214 142.77 521.002 141.945C518.79 141.121 516.343 141.194 514.184 142.15C512.025 143.105 510.326 144.867 509.449 147.059C508.572 149.251 508.587 151.699 509.491 153.88V153.862Z" fill="#00B0FF"/>
<path d="M485.074 189.106C488.369 192.857 504.717 197.772 504.717 197.772C504.717 197.772 501.957 180.926 498.662 177.175C497.884 176.264 496.933 175.516 495.864 174.975C494.794 174.435 493.628 174.112 492.433 174.026C491.238 173.94 490.038 174.093 488.902 174.474C487.767 174.856 486.718 175.46 485.818 176.251C484.918 177.041 484.184 178.003 483.658 179.079C483.133 180.156 482.826 181.326 482.757 182.523C482.688 183.719 482.857 184.917 483.255 186.047C483.652 187.177 484.271 188.217 485.074 189.106Z" fill="#00B0FF"/>
<path d="M466.047 226.63C468.659 230.88 483.94 238.488 483.94 238.488C483.94 238.488 484.07 221.419 481.477 217.163C480.186 215.198 478.18 213.813 475.885 213.301C473.59 212.79 471.186 213.193 469.183 214.424C467.18 215.656 465.736 217.619 465.156 219.898C464.576 222.176 464.907 224.591 466.078 226.63H466.047Z" fill="#00B0FF"/>
<path d="M448.11 93.6758C449.133 89.9246 450.365 86.155 451.227 82.3545C450.192 86.155 448.954 89.937 448.11 93.6758Z" fill="url(#paint0_linear)"/>
<path d="M443.527 129.808C443.441 129.66 443.38 129.512 443.312 129.377C443.312 129.315 443.25 129.266 443.226 129.204C443.091 129.267 442.954 129.323 442.813 129.37C442.542 129.475 442.265 129.574 441.981 129.654C441.698 129.734 441.581 129.777 441.365 129.826C441.187 129.888 441.003 129.935 440.817 129.968L440.866 130.079C441.094 130.029 441.316 129.986 441.544 129.925L441.606 130.689C441.864 130.689 442.105 130.652 442.339 130.652C442.449 130.645 442.56 130.645 442.671 130.652C443.152 130.652 443.57 130.652 443.903 130.652C443.774 130.374 443.638 130.085 443.527 129.808ZM568.567 328.842C565.672 324.943 559.894 283.095 559.894 283.095C559.894 283.095 548.53 253.338 551.628 241.463C554.726 229.587 543.165 199.202 543.165 199.202C543.165 199.202 535.527 195.882 535.114 190.954C535.114 190.954 503.928 181.099 502.469 173.707C501.286 167.646 481.945 163.297 474.997 161.924C472.878 153.374 470.747 145.398 469.176 141.043C468.751 139.688 468.351 138.517 467.981 137.593C465.326 130.818 457.122 130.202 451.171 130.744C450.914 129.589 450.435 128.495 449.761 127.523C449.663 127.188 449.468 126.89 449.2 126.666C449.073 126.557 448.937 126.459 448.794 126.371C448.686 126.171 448.544 125.992 448.375 125.841C448.206 125.689 448.02 125.556 447.821 125.447C447.677 125.369 447.529 125.301 447.377 125.243C447.02 125.108 446.651 125.006 446.275 124.942C445.836 124.851 445.391 124.794 444.944 124.769C446.031 124.294 447.001 123.585 447.784 122.693C448.316 122.067 448.713 121.337 448.948 120.55C449.143 119.895 449.23 119.213 449.207 118.53C449.047 118.811 448.861 119.077 448.652 119.324C448.911 116.595 447.47 113.824 446.644 111.107C445.644 107.571 445.459 103.854 446.102 100.236C446.927 94.7781 448.972 89.2591 450.358 83.7032C450.362 83.6725 450.362 83.6415 450.358 83.6108C451.085 80.8516 451.535 78.0268 451.701 75.1783C451.941 69.4314 450.469 63.6968 448.104 58.4612C446.004 53.823 442.905 49.2588 438.162 47.3739C434.639 45.9511 430.691 46.179 426.896 45.9449C418.384 45.4152 410.266 42.4216 402.172 39.6991C394.078 36.9766 385.75 34.5004 377.232 34.9747C368.713 35.449 359.948 39.5574 356.061 47.0968C354.829 49.4497 354.121 52.0675 352.649 54.2788C349.889 58.4489 344.949 60.537 340.829 63.4135C336.708 66.29 333.08 70.3738 331.589 75.2461C330.775 77.8711 330.66 80.6631 331.257 83.3459C331.391 83.9518 331.563 84.5485 331.774 85.1322C332.359 86.7597 333.27 88.2502 334.453 89.5117C335.346 90.444 336.371 91.239 337.496 91.8708C338.909 92.6541 340.422 93.2425 341.993 93.6201C341.937 93.8049 341.882 94.002 341.82 94.193C341.722 94.5071 341.635 94.8089 341.543 95.1477C341.34 95.9053 341.149 96.6753 340.989 97.4514C340.982 97.5066 340.982 97.5625 340.989 97.6177C340.232 101.121 339.852 104.696 339.855 108.28C339.854 109.975 339.94 111.669 340.114 113.355C342.578 138.351 363.212 158.068 388.707 159.349C389.582 159.392 390.462 159.417 391.356 159.417C391.762 159.417 392.163 159.417 392.588 159.417C392.988 159.947 393.382 160.489 393.758 161.018C394.134 161.548 394.479 162.09 394.805 162.62L393.912 161.696L393.019 160.877C392.777 161.209 392.507 161.52 392.212 161.807C391.629 161.602 391.035 161.433 390.432 161.302C387.875 160.735 383.983 160.526 378.858 162.072C374.146 163.482 368.387 166.383 361.648 171.896L328.811 191.607L311.047 202.411L304.647 218.056C304.647 218.056 299.836 236.646 294.484 257.946C294.274 258.007 294.071 258.069 293.868 258.143C293.434 258.093 292.998 258.069 292.562 258.069C289.456 258.062 286.469 259.258 284.227 261.407C281.985 263.556 280.663 266.49 280.538 269.593C269.895 282.529 269.291 295.464 271.792 301.402C272.018 301.958 272.303 302.488 272.642 302.985C274.28 305.35 277.342 311.448 280.446 317.946C280.366 318.482 280.317 318.932 280.292 319.271C280.286 319.381 280.286 319.492 280.292 319.603C280.292 319.603 282.14 347.512 275.98 355.514C274.631 357.257 274.835 359.548 275.98 362.086C280.107 371.214 296.424 383.404 296.424 383.404C296.424 383.404 315.993 383.299 326.896 382.111C326.865 383.207 326.84 384.297 326.815 385.363C326.569 396.13 326.569 405.154 326.569 405.154L326.163 416.444C326.163 416.444 322.467 440.239 320.619 446.799C319.455 450.913 320.798 489.01 321.968 517.018H514.775C517.042 500.449 513.845 450.106 513.845 450.106C513.845 450.106 510.809 437.091 510.698 425.745C510.692 425.733 510.689 425.719 510.689 425.705C510.689 425.691 510.692 425.678 510.698 425.665C510.698 424.673 510.698 423.706 510.735 422.758L512.133 422.708L514.646 422.622H514.874C514.874 422.622 514.935 422.388 515.077 422.006C515.41 421.055 515.863 420.15 516.426 419.315C517.498 417.732 519.173 416.179 521.693 416.075C523.085 416.019 525.24 414.892 527.674 413.229C527.69 413.233 527.707 413.233 527.723 413.229C534.27 408.8 542.925 400.626 545.025 399.284C547.914 397.436 561.748 385.116 561.748 385.116C561.748 385.116 563.812 382.505 566.011 379.357L566.091 379.246C568.826 375.304 571.733 370.592 571.019 369.108C569.787 366.447 571.844 360.084 571.844 360.084C578.268 348.325 571.462 332.742 568.567 328.842ZM449.459 139.386C449.518 139.57 449.555 139.76 449.57 139.953C449.416 139.749 449.262 139.534 449.108 139.337L448.96 139.139L448.855 138.992L449.09 138.671C449.09 138.671 449.09 138.671 449.09 138.714C449.252 138.914 449.377 139.142 449.459 139.386ZM447.389 133.928C446.718 134.064 446.188 134.187 445.843 134.28C445.406 133.503 444.987 132.727 444.611 131.939C445.599 132.512 446.529 133.178 447.389 133.928ZM446.231 134.902C446.23 134.889 446.23 134.877 446.231 134.865L446.281 134.902C446.533 135.068 446.78 135.228 447.008 135.394C447.211 135.542 447.396 135.684 447.58 135.832C447.457 136.047 447.322 136.269 447.186 136.448C446.971 136.109 446.767 135.783 446.57 135.444C446.447 135.308 446.336 135.123 446.231 134.902ZM442.536 127.301C443.726 127.183 444.924 127.183 446.114 127.301C446.281 127.301 446.429 127.332 446.576 127.356C446.91 127.408 447.238 127.492 447.556 127.609C448.284 128.627 448.732 129.819 448.855 131.064L448.523 131.114L448.196 131.175C447.58 131.28 446.964 131.385 446.484 131.483L445.868 131.612C445.049 131.791 444.574 131.927 444.556 131.933C444.476 131.766 444.396 131.612 444.31 131.452C444.174 131.187 444.032 130.916 443.909 130.652C443.786 130.387 443.626 130.085 443.497 129.808C443.41 129.66 443.349 129.512 443.281 129.377C443.281 129.315 443.219 129.266 443.195 129.204C443.159 129.139 443.128 129.071 443.102 129.001C442.727 128.237 442.382 127.473 442.049 126.722C442.012 126.648 441.981 126.568 441.951 126.494L442.419 126.463V126.623L442.536 127.301ZM295.574 509.405C295.525 500.233 294.86 490.31 293.012 480.997C292.223 477.036 291.41 473.075 290.585 469.183C290.375 468.209 290.172 467.248 289.969 466.288L288.072 466.54H287.899C282.725 442.142 277.317 420.645 277.317 420.645C277.317 420.645 266.575 379.628 267.819 376.358C267.979 375.933 267.776 374.787 267.32 373.105C264.721 363.78 253.867 338.082 250.073 329.298C250.073 329.261 250.042 329.218 250.03 329.187C249.414 327.715 248.971 326.724 248.835 326.434L249.728 313.327L249.777 312.538L249.895 310.863L249.845 310.82L249.895 310.043C249.895 310.043 240.52 302.356 224.64 296.806C224.024 296.585 223.371 296.369 222.725 296.16C223.519 290.856 224.572 284.869 225.946 279.036C226.075 278.451 226.217 277.884 226.365 277.311C226.494 276.739 226.642 276.184 226.79 275.624C227.024 274.712 227.276 273.813 227.535 272.926C228.391 272.655 229.235 272.353 230.067 272.033L230.387 271.909C240.631 267.923 249.084 260.36 254.18 250.621C259.276 240.882 260.671 229.626 258.105 218.937C256.642 212.875 253.941 207.181 250.172 202.214C249.888 201.832 249.587 201.45 249.285 201.074C248.983 200.698 248.619 200.28 248.281 199.898C250.061 195.851 252.161 192.001 252.334 188.065C252.364 187.567 252.364 187.067 252.334 186.568V186.507C252.106 183.975 250.985 181.413 248.373 178.721C244.56 174.773 239.134 172.771 233.707 171.81C228.28 170.849 222.749 170.824 217.292 170.178C208.243 169.094 199.429 166.303 190.381 165.447C179.235 164.415 168.014 166.327 157.839 170.991C151.107 174.071 144.288 179.454 143.882 186.839C143.549 192.944 147.799 198.795 146.728 204.825C145.662 210.751 139.626 215.414 140.155 221.407C140.359 223.748 141.56 225.842 143.063 227.708C143.58 228.324 144.128 228.94 144.695 229.556C146.888 231.878 149.302 234.108 150.528 237.034C150.577 237.157 150.627 237.28 150.67 237.403C151.711 240.292 151.243 243.945 148.668 245.602C148.682 245.613 148.693 245.628 148.699 245.645C148.736 245.694 148.773 245.731 148.803 245.78C148.807 245.771 148.807 245.76 148.803 245.75C149.716 246.832 150.947 247.599 152.32 247.942L152.844 248.103C152.419 248.565 152.019 249.045 151.612 249.55L151.347 249.901C150.668 250.814 150.051 251.771 149.499 252.765C149.185 253.32 148.883 253.874 148.631 254.429C147.787 256.118 147.175 257.915 146.814 259.769C146.155 263.847 147.085 268.097 146.087 272.088C144.855 277.016 140.956 280.798 138.757 285.374C134.593 293.998 136.952 304.118 137.79 313.641C138.929 326.576 137.082 339.566 135.24 352.415C134.263 359.248 133.285 366.087 132.308 372.933C129.844 390.114 127.38 407.295 124.916 424.476C124.017 430.771 122.952 437.411 118.757 442.271H118.8C118.8 442.271 118.8 442.308 118.757 442.321C120.016 442.871 121.355 443.216 122.724 443.343C128.199 443.891 134.002 441.243 138.929 438.348C142.832 436.093 146.528 433.498 149.974 430.593C149.469 432.441 148.927 434.455 148.348 436.623C148.349 436.643 148.349 436.664 148.348 436.685C141.393 463.171 130.208 511.727 130.208 511.727C130.208 511.727 129.191 513.84 127.873 516.987H301.573C299.541 514.523 297.65 512.164 296.172 510.261L295.574 509.405ZM166.962 264.499C167.005 264.426 167.036 264.358 167.079 264.29C167.079 264.487 167.079 264.678 167.079 264.863C167.079 265.048 167.079 265.214 167.079 265.386C167.079 265.559 167.079 265.54 167.079 265.627C167.079 265.713 167.079 265.627 167.079 265.627C167.079 265.879 167.023 266.132 166.98 266.384C166.98 266.384 166.98 266.415 166.98 266.44L167.596 266.668L168.311 266.963C172.532 268.63 176.807 270.14 181.135 271.491C181.578 271.632 182.028 271.768 182.478 271.897L182.57 272.661C182.681 273.443 182.786 274.238 182.884 275.032C182.884 275.032 182.884 275.069 182.884 275.094C183.162 277.293 183.433 279.486 183.673 281.629C183.673 281.629 172.364 277.318 172.505 283.865C172.499 283.982 172.499 284.099 172.505 284.216C172.493 284.372 172.493 284.529 172.505 284.684C172.61 289.785 174.205 292.809 174.526 294.361C174.507 294.425 174.473 294.484 174.427 294.534C174.154 295.128 174.06 295.79 174.156 296.437C174.145 297.539 174.232 298.639 174.415 299.726C174.082 299.929 173.756 300.133 173.429 300.342C173.183 300.496 172.949 300.669 172.709 300.841C171.198 295.6 169.221 290.504 166.802 285.615C165.108 282.128 163.204 278.494 163.223 274.669C163.223 274.423 163.223 274.17 163.254 273.917C163.322 272.809 163.534 271.714 163.882 270.659C164.024 270.259 164.178 269.864 164.35 269.476C164.753 268.554 165.203 267.654 165.699 266.778C166.019 266.199 166.358 265.627 166.685 265.048C166.789 264.875 166.888 264.697 166.986 264.524L166.962 264.499ZM443.527 129.808C443.441 129.66 443.38 129.512 443.312 129.377C443.312 129.315 443.25 129.266 443.226 129.204C443.091 129.267 442.954 129.323 442.813 129.37C442.542 129.475 442.265 129.574 441.981 129.654C441.698 129.734 441.581 129.777 441.365 129.826L440.817 129.968L440.866 130.079C441.094 130.029 441.316 129.986 441.544 129.925L441.606 130.689C441.864 130.689 442.105 130.652 442.339 130.652H442.671C443.152 130.652 443.57 130.652 443.903 130.652C443.774 130.374 443.638 130.085 443.527 129.808Z" fill="url(#paint1_linear)"/>
<path d="M308.94 220.28L305.245 221.912C305.245 221.912 281.155 315.501 281.155 323.065C281.155 330.629 332.236 372.717 332.236 372.717L340.207 318.919C340.207 318.919 328.762 195.549 308.94 220.28Z" fill="#E8F5FF"/>
<path d="M420.989 190.51L399.646 179.374C398.451 174.278 396.33 169.444 393.388 165.114C390.265 160.606 386.114 156.177 380.94 153.867C367.863 148.003 436.253 117.224 436.253 117.224C437.33 120.921 438.599 124.56 440.053 128.126C443.577 136.823 449.422 148.071 456.955 151.274C469.761 156.725 420.989 190.51 420.989 190.51Z" fill="#FFC1C7"/>
<path opacity="0.1" d="M440.053 128.126C437.131 138.403 431.054 147.503 422.681 154.14C414.308 160.777 404.061 164.616 393.388 165.114C390.265 160.606 386.114 156.177 380.94 153.867C367.863 148.003 436.253 117.224 436.253 117.224C437.33 120.921 438.599 124.56 440.053 128.126Z" fill="black"/>
<path d="M441.975 112.586C441.978 122.666 438.991 132.519 433.393 140.901C427.795 149.283 419.836 155.816 410.525 159.675C401.213 163.533 390.967 164.544 381.081 162.579C371.195 160.613 362.114 155.76 354.986 148.634C347.858 141.507 343.004 132.426 341.038 122.541C339.071 112.655 340.081 102.408 343.938 93.0962C347.796 83.7842 354.328 75.8252 362.709 70.2261C371.09 64.6269 380.944 61.639 391.023 61.6402C397.722 61.6092 404.361 62.9058 410.557 65.455C416.752 68.0042 422.381 71.7556 427.118 76.4925C431.856 81.2293 435.608 86.8578 438.158 93.0529C440.708 99.248 442.005 105.887 441.975 112.586Z" fill="#FFC1C7"/>
<path d="M449.33 183.969L435.434 216.393L423.176 237.915H383.94L372.495 208.49L377.133 177.976H407.1L426.447 176.886L432.982 174.705L437.196 177.095L449.33 183.969Z" fill="#575A89"/>
<path opacity="0.1" d="M444.544 140.748C444.544 140.748 453.21 142.596 445.449 148.958C437.688 155.321 410.913 175.556 410.913 175.556C410.913 175.556 420.318 183.933 418.372 193.745L449.533 176.375L455.077 148.583C455.077 148.583 455.699 140.23 444.544 140.748Z" fill="black"/>
<path opacity="0.1" d="M417.041 175.556L397.22 178.826C397.22 178.826 401.31 193.948 399.265 198.241C399.203 198.375 399.151 198.513 399.111 198.654L391.023 220.514L397.084 237.681L418.064 209.07L410.912 198.241C410.912 198.241 418.47 188.226 422.967 184.752C427.463 181.278 417.041 175.556 417.041 175.556Z" fill="black"/>
<path d="M417.041 174.712L397.22 177.976C397.22 177.976 401.31 193.098 399.265 197.392C399.203 197.525 399.151 197.663 399.111 197.804L391.023 219.665L397.084 236.831L418.064 208.202L410.912 197.373C410.912 197.373 418.47 187.358 422.967 183.884C427.463 180.41 417.041 174.712 417.041 174.712Z" fill="#DCE6F2"/>
<path d="M445.375 139.115C445.375 139.115 454.042 140.963 446.275 147.326C438.508 153.688 410.913 175.555 410.913 175.555C410.913 175.555 421.131 182.3 419.191 192.106L450.352 174.742L455.896 146.95C455.896 146.95 456.512 138.597 445.375 139.115Z" fill="#575A89"/>
<path opacity="0.1" d="M394.75 167.043C394.75 167.043 396.64 170.579 404.987 176.954C404.987 176.954 391.091 184.345 396.406 194.737L375.15 189.193L371.879 178.974L394.75 167.043Z" fill="black"/>
<path d="M393.93 166.229C393.93 166.229 395.821 169.765 404.168 176.14C404.168 176.14 390.272 183.495 395.587 193.917L374.337 188.373L371.066 178.161L393.93 166.229Z" fill="#575A89"/>
<path opacity="0.1" d="M449.33 183.969L435.434 216.393L423.201 237.915H383.94L372.495 208.49L377.127 177.976H385.461C385.326 185.096 387.925 193.461 387.759 196.571C387.475 201.684 395.384 229.266 395.384 229.266C395.384 229.266 411.935 202.497 418.47 200.113C422.579 198.616 431.282 186.162 437.189 177.095L449.33 183.969Z" fill="black"/>
<path d="M504.07 354.596L502.659 356.37C502.659 356.37 512.878 407.661 510.051 419.309C509.57 421.408 509.296 423.549 509.232 425.702V425.795C508.733 437.646 512.311 453.026 512.311 453.026C512.311 453.026 515.169 498.361 513.543 517.006H322.214C321.093 489.435 319.886 453.716 320.982 449.755C322.83 443.22 326.526 419.512 326.526 419.512L326.932 408.277C326.932 408.277 326.932 397.417 327.265 385.32C327.407 379.881 327.616 374.171 327.918 369.108C328.306 362.739 328.848 357.374 329.593 354.738C330.052 352.739 330.316 350.701 330.382 348.652C330.382 348.461 330.382 348.264 330.419 348.067C330.419 347.451 330.48 346.786 330.505 346.102C330.505 345.911 330.505 345.72 330.505 345.486C330.622 341.519 330.579 336.813 330.45 331.935C330.45 331.67 330.45 331.399 330.45 331.128C330.345 327.469 330.191 323.736 330.018 320.188C329.482 309.101 328.786 299.726 328.786 299.726L305.288 221.869L311.62 206.273L329.193 195.506L361.685 175.888C377.533 162.86 387.968 164.425 391.947 165.854C392.333 165.986 392.712 166.14 393.08 166.316C393.203 166.377 393.302 166.427 393.394 166.482C393.521 166.542 393.642 166.612 393.758 166.691C392.668 167.216 391.722 167.995 390.998 168.964C390.183 170.067 389.603 171.325 389.292 172.66C389.084 173.488 388.938 174.33 388.855 175.179C388.775 176.073 388.744 176.996 388.744 177.927C388.788 179.966 388.963 182.001 389.267 184.018C389.267 184.055 389.267 184.105 389.267 184.154C389.471 185.595 389.723 187.006 389.97 188.33C389.967 188.353 389.967 188.375 389.97 188.398C390.253 189.944 390.536 191.373 390.727 192.605C390.764 192.827 390.795 193.03 390.826 193.221C390.962 194.035 391.025 194.859 391.017 195.685C391.086 197.677 391.354 199.658 391.817 201.598C391.978 202.411 392.162 203.279 392.366 204.185C392.643 205.417 392.945 206.76 393.271 208.127C393.45 208.878 393.641 209.655 393.838 210.425C393.912 210.733 393.992 211.041 394.066 211.355L394.189 211.841C395.501 217.058 396.924 222.251 397.798 225.392C398.316 227.24 398.642 228.38 398.642 228.38C398.642 228.38 407.919 213.381 415.323 204.844C415.433 204.721 415.532 204.604 415.637 204.493C416.37 203.649 417.09 202.879 417.78 202.201C419.289 200.699 420.644 199.627 421.735 199.233C421.967 199.147 422.192 199.042 422.406 198.918C425.437 197.2 430.327 190.96 434.904 184.425C435.353 183.809 435.791 183.138 436.234 182.503C437.251 181.037 438.236 179.565 439.166 178.154C439.881 177.077 440.564 176.029 441.211 175.032C444.291 170.239 446.459 166.667 446.459 166.667L450.734 166.476L451.479 166.439H451.978L471.387 165.54C471.387 165.54 472.225 165.681 473.605 165.958C473.678 165.958 473.752 165.958 473.832 166.008C480.719 167.375 499.851 171.705 501.021 177.711C502.45 185.066 533.309 194.878 533.309 194.878C533.716 199.805 541.274 203.052 541.274 203.052C541.274 203.052 552.718 233.295 549.657 245.146C546.633 256.849 557.529 285.799 557.818 286.613L555.73 289.249L504.07 354.596Z" fill="#E8F5FF"/>
<path opacity="0.1" d="M444.538 138.598C444.538 138.598 463.429 133.239 467.722 144.271C472.016 155.303 481.618 199.855 481.618 199.855C481.618 199.855 456.684 204.555 450.149 199.855C446.315 197.066 441.571 195.825 436.863 196.381L422.763 205.984L418.6 204.752C418.6 204.752 441.156 171.219 446.059 159.824C450.962 148.429 452.619 143.335 444.538 138.598Z" fill="black"/>
<path d="M443.718 136.134C443.718 136.134 462.622 130.775 466.934 141.807C471.246 152.839 480.83 197.391 480.83 197.391C480.83 197.391 455.902 202.091 449.36 197.391C445.529 194.602 440.787 193.361 436.08 193.917L421.969 203.52L417.805 202.288C417.805 202.288 440.361 168.755 445.264 157.36C450.167 145.965 451.8 140.883 443.718 136.134Z" fill="#E8F5FF"/>
<path opacity="0.1" d="M316.911 313.869C316.911 313.869 331.01 317.343 333.671 325.314C336.332 333.284 323.249 333.487 323.249 333.487C323.249 333.487 315.279 319.388 316.911 313.869Z" fill="black"/>
<path opacity="0.1" d="M369.427 372.718C369.427 372.718 334.897 443.424 342.867 450.168C350.838 456.913 369.427 372.718 369.427 372.718Z" fill="black"/>
<path opacity="0.1" d="M417.041 320.613C417.041 320.613 444.63 389.293 439.111 399.899C433.592 410.506 450.962 399.899 450.962 399.899L417.041 320.613Z" fill="black"/>
<path d="M455.459 388.455C455.459 388.455 362.276 392.952 389.459 421.969C416.641 450.987 472.422 423.201 472.422 423.201L455.459 388.455Z" fill="#FFC1C7"/>
<path opacity="0.1" d="M441.975 112.586C441.984 119.269 440.671 125.888 438.113 132.062C437.257 132.161 436.401 132.222 435.576 132.259C434.344 129.555 435.003 126.432 435.027 123.457C435.052 120.482 433.956 116.983 431.091 116.183C425.381 114.575 421.439 125.25 415.809 123.322C411.498 121.856 412.625 115.314 410.143 111.538C408.178 108.551 404.242 107.707 401.18 105.835C394.67 101.837 394.867 95.4434 391.842 89.3947C388.676 83.0565 381.987 84.929 376.179 88.6679C371.768 91.5136 367.962 95.3264 363.243 97.5931C359.16 99.5642 354.571 100.279 350.043 100.383C347.256 100.491 344.468 100.197 341.765 99.5087C344.944 87.5554 352.363 77.1665 362.637 70.2795C372.912 63.3924 385.34 60.4774 397.605 62.078C409.87 63.6786 421.134 69.6856 429.297 78.9787C437.46 88.2718 441.964 100.217 441.969 112.586H441.975Z" fill="black"/>
<path d="M376.197 87.0357C371.781 89.8814 367.98 93.6881 363.262 95.9671C359.178 97.932 354.589 98.6465 350.062 98.7513C344.518 98.8744 338.55 97.9012 334.762 93.8975C331.281 90.2017 330.45 84.5164 331.922 79.6688C333.394 74.8213 336.924 70.799 341.069 67.8856C345.214 64.9721 350.025 62.9579 352.772 58.7878C354.226 56.5827 354.928 53.9834 356.135 51.6366C359.997 44.128 368.682 40.0627 377.078 39.5576C385.473 39.0525 393.795 41.5533 401.79 44.2635C409.785 46.9738 417.842 49.955 426.281 50.5155C430.038 50.7496 433.943 50.5155 437.43 51.9384C442.117 53.8417 445.191 58.3936 447.285 63.0256C449.632 68.249 451.092 73.9527 450.845 79.6565C450.328 91.834 442.283 103.784 445.819 115.45C446.755 118.56 448.511 121.751 447.575 124.862C446.207 129.401 440.349 130.436 435.613 130.652C434.381 127.948 435.04 124.819 435.064 121.85C435.089 118.881 433.993 115.376 431.135 114.575C425.418 112.98 421.476 123.636 415.859 121.714C411.578 120.242 412.687 113.707 410.198 109.931C408.233 106.937 404.291 106.1 401.236 104.227C394.725 100.23 394.922 93.8359 391.898 87.7872C388.707 81.4182 382.012 83.2907 376.197 87.0357Z" fill="#99607E"/>
<path d="M285.842 321.426L281.142 323.065C281.142 323.065 282.99 350.857 276.83 358.827C270.671 366.798 297.059 386.613 297.059 386.613C297.059 386.613 333.228 386.41 334.25 383.533C335.273 380.657 332.402 332.039 332.402 332.039C332.402 332.039 312.987 324.475 314.62 312.421C314.62 312.421 308.694 340.823 299.91 339.597C291.127 338.371 281.154 331.035 285.842 321.426Z" fill="#E8F5FF"/>
<path opacity="0.1" d="M301.518 348.196C308.366 348.196 313.917 343.119 313.917 336.856C313.917 330.594 308.366 325.517 301.518 325.517C294.67 325.517 289.119 330.594 289.119 336.856C289.119 343.119 294.67 348.196 301.518 348.196Z" fill="black"/>
<path d="M315.075 322.246C315.075 322.246 312.612 247.05 291.164 263.804C269.716 280.558 269.507 300.595 273.59 306.515C277.674 312.434 290.77 342.068 290.77 342.068C292.818 343.255 295.118 343.94 297.483 344.067C299.847 344.193 302.207 343.758 304.371 342.796C306.534 341.835 308.439 340.374 309.929 338.535C311.42 336.695 312.453 334.528 312.944 332.212L315.075 322.246Z" fill="#FFC1C7"/>
<path opacity="0.1" d="M448.868 131.773C448.768 131.443 448.576 131.148 448.313 130.923C447.254 129.956 444.975 129.617 441.538 129.913L441.68 131.539C446.262 131.145 447.168 132.057 447.285 132.211V132.365L447.427 132.568C447.998 133.336 448.403 134.215 448.615 135.148C448.827 136.081 448.842 137.049 448.658 137.988C447.654 143.008 441.489 147.006 441.427 147.049L441.279 147.135L441.187 147.277C438.526 151.225 423.478 162.368 419.542 165.251L419.197 164.856C417.435 166.384 401.95 179.941 401.113 185.134C400.571 188.392 396.899 189.655 395.569 190.006C394.165 188.94 389.606 185.312 387.235 181.247C385.011 177.422 393.961 169.956 394.75 167.043L393.518 165.78C393.388 166.248 381.895 176.991 385.091 182.479C387.654 186.883 392.335 190.653 393.974 191.897C393.45 196.652 390.192 224.574 385.184 231.189C378.963 239.412 373.733 280.854 374.312 295.323C374.823 308.178 371.466 332.459 360.256 342.887C358.315 344.771 355.974 346.193 353.407 347.047C350.839 347.9 348.113 348.162 345.43 347.815H345.294H345.159C344.999 347.815 328.737 349.478 315.075 337.959C303.896 328.554 297.564 313.204 296.246 292.323H295.975L295.864 286.243C298.895 285.77 301.625 284.141 303.48 281.697C305.335 279.253 306.17 276.186 305.811 273.139C305.451 270.092 303.925 267.304 301.553 265.358C299.18 263.413 296.146 262.464 293.088 262.709C290.03 262.954 287.186 264.375 285.153 266.673C283.121 268.971 282.058 271.967 282.189 275.032C282.319 278.097 283.633 280.993 285.853 283.11C288.073 285.227 291.028 286.401 294.096 286.385H294.231L294.342 292.428L293.8 292.465C295.155 314.023 301.808 329.97 313.511 339.82C322.406 347.191 333.768 350.909 345.301 350.223C346.119 350.313 346.941 350.358 347.764 350.359C353.05 350.386 358.136 348.34 361.931 344.661C373.739 333.666 377.33 308.492 376.77 295.199C376.154 279.868 381.642 239.917 387.149 232.643C392.545 225.504 395.815 197.687 396.388 192.297C398.341 191.749 402.757 190.018 403.509 185.522C404.051 182.27 414.393 172.248 420.755 166.698L420.565 166.476C423.989 163.976 434.639 156.091 439.918 151.028C441.556 149.457 443.183 147.887 444.883 146.39C446.928 144.579 449.527 141.702 450.211 138.302C450.444 137.18 450.445 136.022 450.214 134.899C449.983 133.776 449.525 132.712 448.868 131.773Z" fill="black"/>
<path d="M393.764 191.509C393.505 191.33 387.37 186.938 384.297 181.653C381.106 176.165 392.6 165.429 392.723 164.961L393.955 166.224C393.173 169.131 384.223 176.603 386.446 180.422C389.249 185.244 395.15 189.464 395.211 189.507L393.764 191.509Z" fill="#353146"/>
<path d="M418.741 166.445L417.781 165.121C417.978 164.979 437.325 150.985 440.374 146.458L440.472 146.322L440.614 146.23C440.676 146.186 446.841 142.195 447.845 137.169C448.031 136.23 448.017 135.264 447.804 134.331C447.592 133.398 447.187 132.521 446.614 131.755L446.472 131.545V131.397C446.349 131.237 445.443 130.332 440.86 130.726L440.719 129.094C444.162 128.798 446.435 129.137 447.494 130.104C447.758 130.331 447.952 130.628 448.055 130.96C448.721 131.897 449.188 132.96 449.427 134.084C449.667 135.208 449.674 136.369 449.447 137.495C448.763 140.902 446.17 143.778 444.119 145.583C442.425 147.08 440.793 148.663 439.16 150.221C432.97 156.153 419.419 165.959 418.741 166.445Z" fill="#E8F5FF"/>
<path d="M295.069 284.099L293.437 284.129L293.619 294.05L295.251 294.02L295.069 284.099Z" fill="#E8F5FF"/>
<path d="M293.301 285.602C299.884 285.602 305.22 280.266 305.22 273.683C305.22 267.101 299.884 261.765 293.301 261.765C286.719 261.765 281.382 267.101 281.382 273.683C281.382 280.266 286.719 285.602 293.301 285.602Z" fill="#00B0FF"/>
<path d="M293.301 283.582C298.768 283.582 303.2 279.15 303.2 273.684C303.2 268.217 298.768 263.785 293.301 263.785C287.835 263.785 283.403 268.217 283.403 273.684C283.403 279.15 287.835 283.582 293.301 283.582Z" fill="#E8F5FF"/>
<path d="M346.988 349.564C346.165 349.565 345.343 349.522 344.524 349.434C332.993 350.113 321.633 346.396 312.735 339.031C301.031 329.175 294.391 313.247 293.024 291.67L295.488 291.516C296.806 312.397 303.138 327.753 314.324 337.152C327.986 348.64 344.241 347.007 344.401 347.007H344.537H344.672C347.356 347.353 350.083 347.09 352.651 346.237C355.219 345.384 357.561 343.963 359.504 342.08C370.709 331.652 374.066 307.37 373.554 294.515C372.938 280.034 378.168 238.592 384.395 230.376C389.847 223.175 393.228 190.72 393.265 190.394L393.358 189.47L394.269 189.31C394.325 189.31 399.646 188.299 400.312 184.32C401.174 179.134 416.635 165.577 418.39 164.043L419.998 165.891C413.61 171.434 403.268 181.462 402.751 184.721C401.999 189.23 397.583 190.954 395.637 191.496C395.021 196.892 391.775 224.703 386.397 231.842C380.891 239.116 375.402 279.067 376.018 294.398C376.548 307.691 372.994 332.871 361.186 343.86C357.384 347.548 352.285 349.597 346.988 349.564Z" fill="#353146"/>
<g opacity="0.1">
<path opacity="0.1" d="M447.223 98.025C448.233 94.2923 449.453 90.5349 450.303 86.7529C449.287 90.5534 448.061 94.2923 447.223 98.025Z" fill="black"/>
<path opacity="0.1" d="M436.918 127.357C435.686 124.653 436.345 121.524 436.37 118.555C436.395 115.586 435.298 112.112 432.44 111.28C426.724 109.685 422.782 120.347 417.164 118.419C412.853 116.947 413.992 110.412 411.504 106.636C409.539 103.642 405.603 102.805 402.548 100.932C396.031 96.9346 396.228 90.541 393.21 84.4922C390.038 78.1479 383.354 80.0204 377.54 83.7654C373.123 86.6111 369.323 90.4239 364.605 92.6968C360.521 94.6617 355.932 95.3762 351.405 95.4809C345.892 95.6103 339.892 94.6309 336.104 90.6272C333.185 87.5474 332.131 83.0324 332.735 78.8008C332.63 79.0903 332.538 79.3798 332.445 79.6693C330.967 84.5169 331.829 90.2145 335.285 93.8979C339.073 97.9017 345.073 98.8749 350.585 98.7517C355.119 98.647 359.702 97.9325 363.792 95.9676C368.522 93.6885 372.323 89.8819 376.727 87.0361C382.541 83.2911 389.231 81.4186 392.397 87.763C395.415 93.8117 395.224 100.205 401.735 104.203C404.814 106.051 408.726 106.913 410.697 109.907C413.161 113.695 412.07 120.218 416.358 121.69C421.969 123.612 425.911 112.956 431.627 114.551C434.485 115.352 435.588 118.863 435.557 121.826C435.526 124.788 434.886 127.924 436.105 130.628C440.842 130.412 446.7 129.396 448.073 124.838C448.262 124.183 448.35 123.504 448.332 122.823C446.33 126.279 441.181 127.166 436.918 127.357Z" fill="black"/>
</g>
<path opacity="0.1" d="M548.241 279.129L555.392 286.693C555.392 286.693 561.114 328.375 563.972 332.274C566.83 336.173 573.581 351.683 567.243 363.331C567.243 363.331 565.198 369.669 566.424 372.324C567.649 374.978 557.234 388.265 557.234 388.265C557.234 388.265 543.541 400.522 540.677 402.364C537.812 404.206 522.697 418.915 517.591 419.118C512.484 419.321 510.815 425.659 510.815 425.659L482 426.682C482 426.682 466.084 425.85 462.622 428.099C462.622 428.099 464.47 403.781 446.688 387.84L469.367 379.666C469.367 379.666 477.954 375.97 480.608 372.108C482.278 369.74 484.648 367.955 487.384 367.002C487.384 367.002 493.716 362.505 493.919 360.054C494.122 357.602 501.662 354.596 501.662 354.596L497.393 318.162L499.641 257.675C499.641 257.675 506.793 206.994 521.915 209.858C537.036 212.722 548.241 279.129 548.241 279.129Z" fill="black"/>
<path d="M550.704 279.129L557.855 286.693C557.855 286.693 563.578 328.375 566.436 332.274C569.294 336.173 576.045 351.683 569.706 363.331C569.706 363.331 567.668 369.669 568.893 372.324C570.119 374.978 559.697 388.265 559.697 388.265C559.697 388.265 546.004 400.522 543.14 402.364C540.276 404.206 525.16 418.915 520.054 419.118C514.948 419.321 513.278 425.659 513.278 425.659L484.464 426.682C484.464 426.682 468.535 425.85 465.086 428.099C465.086 428.099 466.934 403.781 449.151 387.84L471.831 379.666C471.831 379.666 480.417 375.97 483.072 372.108C484.742 369.74 487.111 367.955 489.847 367.002C489.847 367.002 496.179 362.505 496.383 360.054C496.586 357.602 504.125 354.596 504.125 354.596L499.857 318.162L502.105 257.675C502.105 257.675 509.256 206.994 524.378 209.858C539.5 212.722 550.704 279.129 550.704 279.129Z" fill="#E8F5FF"/>
<path opacity="0.1" d="M524.119 340.231C524.119 340.231 545.167 334.688 550.686 341.463C556.205 348.239 524.119 340.231 524.119 340.231Z" fill="black"/>
<path opacity="0.1" d="M519.216 349.526C526.368 354.534 548.437 354.737 548.437 354.737L519.216 349.526Z" fill="black"/>
<path opacity="0.1" d="M530.045 374.56C530.661 374.763 545.216 390.297 551.326 385.598C557.437 380.898 530.045 374.56 530.045 374.56Z" fill="black"/>
<path opacity="0.1" d="M334.022 244.186C334.022 244.186 338.297 273.616 336.19 285.603C334.084 297.589 341.771 312.44 341.771 312.44L334.022 244.186Z" fill="black"/>
<path d="M239.386 256.154C234.459 260.016 230.861 269.157 228.256 279.203C223.71 296.727 222.226 317.047 222.226 317.047C222.226 317.047 182.989 308.054 185.847 303.971C187.646 301.402 185.231 282.049 183.217 268.017C182.016 259.726 180.944 253.289 180.944 253.289C180.944 253.289 252.876 245.522 239.386 256.154Z" fill="#FFCCD0"/>
<path opacity="0.1" d="M239.386 255.335C234.459 259.203 230.861 268.337 228.256 278.384C220.438 280.758 212.124 280.972 204.195 279.003C196.266 277.035 189.017 272.958 183.217 267.204C182.016 258.907 180.944 252.47 180.944 252.47C180.944 252.47 252.876 244.709 239.386 255.335Z" fill="black"/>
<path d="M260.477 233.32C260.481 244.033 256.695 254.403 249.788 262.593C242.882 270.784 233.301 276.267 222.741 278.072C212.18 279.877 201.322 277.889 192.087 272.458C182.852 267.027 175.836 258.504 172.281 248.397C168.725 238.291 168.86 227.253 172.661 217.236C176.462 207.22 183.684 198.871 193.049 193.667C202.413 188.463 213.317 186.74 223.83 188.802C234.343 190.865 243.788 196.58 250.492 204.936C256.953 212.986 260.475 222.998 260.477 233.32Z" fill="#FFCCD0"/>
<path opacity="0.1" d="M296.252 517.006H283.316L282.226 494.16L281.087 470.514C281.087 470.514 284.025 470.076 288.706 469.423L290.597 469.171H290.751C291.774 473.969 292.784 478.897 293.757 483.818C295.377 492.556 296.22 501.419 296.276 510.305C296.276 510.921 296.276 511.537 296.276 512.116C296.313 513.76 296.276 515.405 296.252 517.006Z" fill="black"/>
<path d="M293.769 517.006H131.55C132.252 515.411 132.721 514.444 132.721 514.444C132.721 514.444 145.699 457.665 152.296 433.642C152.298 433.622 152.298 433.601 152.296 433.581C153.12 430.318 154.115 427.1 155.277 423.941C155.352 423.726 155.449 423.52 155.567 423.325C158.831 418.016 162.921 412.293 157.199 404.12C151.477 395.946 153.503 359.98 153.503 359.98C153.503 359.98 160.451 329.324 167.806 312.976C168.922 310.444 170.506 308.145 172.475 306.201C173.115 305.574 173.798 304.994 174.52 304.464C175.068 304.051 175.64 303.671 176.232 303.324L176.349 303.25C179.438 301.498 182.869 300.433 186.408 300.127C188.921 299.864 191.458 299.935 193.953 300.337C205.878 302.086 215.425 305.012 223.014 308.344C243.581 317.38 249.808 329.49 249.931 329.742L249.981 329.847C250.806 331.775 262.879 359.961 267.228 373.112C268.355 376.537 268.971 378.945 268.724 379.604C267.492 382.869 278.124 423.738 278.124 423.738C278.124 423.738 283.052 443.448 287.979 466.553C288.195 467.514 288.398 468.475 288.595 469.448C289.476 473.643 290.351 477.918 291.195 482.186C292.83 490.983 293.673 499.909 293.714 508.857C293.804 511.645 293.823 514.362 293.769 517.006Z" fill="#FF748E"/>
<path opacity="0.1" d="M185.441 286.071C185.441 286.071 174.249 281.759 174.384 288.301C174.52 294.842 177.113 297.971 176.294 298.926C175.474 299.881 176.7 305.603 176.7 305.603C176.7 305.603 191.822 305.603 198.77 308.732C205.718 311.861 231.329 318.132 234.6 320.041C237.871 321.951 249.999 330.512 249.999 330.512L251.089 314.3C251.089 314.3 238.555 303.946 217.988 298.637C197.421 293.327 185.441 286.071 185.441 286.071Z" fill="black"/>
<path d="M185.441 285.252C185.441 285.252 174.249 280.94 174.384 287.481C174.52 294.023 177.113 297.152 176.294 298.107C175.474 299.061 176.7 304.784 176.7 304.784C176.7 304.784 191.822 304.784 198.77 307.919C205.718 311.054 231.329 317.318 234.6 319.222C237.871 321.125 249.999 329.693 249.999 329.693L251.102 313.53C251.102 313.53 238.567 303.176 218 297.866C197.433 292.557 185.441 285.252 185.441 285.252Z" fill="#FF748E"/>
<path opacity="0.1" d="M219.226 324.267C219.226 324.267 240.612 347.42 239.522 353.833C238.431 360.245 219.226 324.267 219.226 324.267Z" fill="black"/>
<path opacity="0.1" d="M184.486 407.907C184.486 407.907 168.81 422.352 164.19 423.171C159.57 423.99 167.732 426.712 173.041 424.538C178.351 422.364 189.672 416.642 189.672 416.642L184.486 407.907Z" fill="black"/>
<path d="M300.138 517.006H263.581C258.469 512.571 253.633 508.462 250.554 505.992C245.626 502.038 242.072 496.217 239.805 491.536C239.294 490.47 238.85 489.472 238.475 488.567C237.802 487.007 237.21 485.414 236.701 483.793L263.772 467.717C265.268 468.989 266.674 470.364 267.979 471.831L268.306 472.207C269.808 473.981 271.133 475.995 271.25 477.646C271.385 479.568 276.732 487.002 282.195 494.141C287.739 501.404 293.418 508.345 293.794 508.814C293.794 508.814 294.73 510.089 296.258 512.047C297.336 513.464 298.666 515.164 300.138 517.006Z" fill="#FFCCD0"/>
<path opacity="0.1" d="M250.492 204.936C249.192 207.868 248.028 210.911 247.856 214.176C247.369 223.6 248.158 244.672 237.723 249.402C232.555 251.731 227.024 246.618 221.357 246.495C217.28 246.409 213.541 248.996 211.052 252.23C208.564 255.463 207.018 259.301 205.213 262.96C203.57 266.281 201.678 269.472 199.552 272.507C198.917 273.436 198.217 274.319 197.458 275.15C191.096 272.465 185.43 268.363 180.893 263.157C176.355 257.951 173.067 251.778 171.276 245.108C169.486 238.439 169.242 231.448 170.563 224.67C171.884 217.892 174.734 211.504 178.897 205.995C183.06 200.485 188.426 195.998 194.586 192.876C200.746 189.755 207.537 188.08 214.442 187.98C221.347 187.881 228.184 189.358 234.431 192.301C240.678 195.244 246.172 199.574 250.492 204.961V204.936Z" fill="black"/>
<path d="M247.036 212.512C246.544 221.937 247.338 243.009 236.898 247.733C231.73 250.061 226.199 244.955 220.532 244.832C216.454 244.739 212.721 247.333 210.227 250.56C207.732 253.788 206.198 257.631 204.387 261.296C202.744 264.617 200.852 267.809 198.727 270.844C197.458 272.642 196.054 274.447 194.101 275.457C190.701 277.231 186.58 276.233 182.934 275.094C178.203 273.603 173.542 271.924 168.951 270.055C169.057 269.362 169.11 268.662 169.111 267.961C168.976 268.22 168.828 268.46 168.68 268.719L168.391 269.224C167.867 270.148 167.356 271.072 166.888 272.02C166.709 272.384 166.537 272.759 166.383 273.135C165.763 274.533 165.374 276.023 165.231 277.545C164.917 281.654 166.943 285.553 168.742 289.249C175.659 303.545 179.934 320.262 174.729 335.261C172.475 341.784 168.569 347.58 165.718 353.881C160.732 365.042 159.265 377.456 161.511 389.471C162.933 396.937 165.785 404.328 165.083 411.898C163.851 424.926 152.616 434.621 141.363 441.286C135.283 444.871 127.842 448.061 121.387 445.228C125.502 440.423 126.561 433.777 127.448 427.507C129.875 410.404 132.308 393.292 134.747 376.173C135.72 369.36 136.691 362.548 137.661 355.735C139.472 342.936 141.307 329.994 140.174 317.115C139.348 307.623 137.02 297.546 141.135 288.953C143.309 284.401 147.183 280.631 148.391 275.728C149.382 271.743 148.458 267.505 149.111 263.446C149.469 261.599 150.074 259.809 150.91 258.124C151.975 255.838 153.365 253.717 155.037 251.829C153.386 251.349 151.846 250.69 150.91 249.31C153.559 247.585 153.959 243.698 152.758 240.779C151.557 237.859 149.154 235.635 146.992 233.332C144.83 231.028 142.748 228.343 142.477 225.201C141.954 219.22 147.929 214.588 148.982 208.687C150.048 202.682 145.834 196.842 146.173 190.763C146.567 183.414 153.318 178.074 159.983 174.976C170.04 170.32 181.15 168.408 192.185 169.432C201.166 170.282 209.857 173.06 218.813 174.138C224.215 174.754 229.691 174.816 235.056 175.764C240.421 176.713 245.798 178.715 249.574 182.651C259.528 193.03 247.603 201.573 247.036 212.512Z" fill="#FFE0D0"/>
<path opacity="0.1" d="M238.709 491.543C235.568 490.181 229.851 490.994 220.039 488.007C210.227 485.02 208.336 471.518 208.336 471.518V471.475C208.219 471.167 207.307 469.159 201.135 462.124C194.317 454.357 179.577 415.127 179.577 415.127C179.577 415.127 166.506 401.089 166.919 395.915C167.332 390.741 164.597 376.974 164.868 361.575C165.139 346.176 194.292 335.964 194.292 335.964C250.424 326.016 237.206 390.729 235.709 395.632C234.212 400.535 241.98 413.778 241.98 413.778C240.883 419.543 246.476 428.468 246.476 428.468C246.476 428.468 247.831 436.365 248.108 439.365C248.124 439.503 248.155 439.64 248.201 439.771C249.1 442.599 256.43 445.161 259.411 446.719C262.547 448.358 272.63 462.66 272.63 462.66C274.804 473.162 241.838 492.922 238.709 491.543Z" fill="black"/>
<path d="M240.341 489.078C237.206 487.711 231.484 488.53 221.678 485.537C211.871 482.543 209.974 469.053 209.974 469.053V469.01C209.863 468.696 208.946 466.694 202.774 459.66C195.955 451.893 181.215 412.656 181.215 412.656C181.215 412.656 168.145 398.625 168.551 393.451C168.958 388.277 166.235 374.51 166.506 359.123C166.777 343.737 195.912 333.53 195.912 333.53C252.044 323.582 238.826 388.295 237.329 393.198C235.832 398.101 243.599 411.344 243.599 411.344C242.503 417.11 248.096 426.035 248.096 426.035C248.096 426.035 249.451 433.932 249.734 436.931C249.745 437.07 249.774 437.207 249.821 437.338C250.72 440.165 258.05 442.727 261.037 444.286C264.166 445.918 274.256 460.227 274.256 460.227C276.442 470.71 243.476 490.47 240.341 489.078Z" fill="#FF748E"/>
<path opacity="0.1" d="M197.021 367.315C197.021 367.315 221.542 393.186 227.942 393.186C234.342 393.186 197.021 367.315 197.021 367.315Z" fill="black"/>
<path d="M240.341 489.079C237.206 487.711 231.483 488.53 221.677 485.537C211.871 482.543 209.974 469.054 209.974 469.054V469.011C216.472 464.699 232.931 452.521 239.417 448.068C243.981 444.945 247.708 440.356 249.888 437.313C250.788 440.141 258.117 442.703 261.105 444.261C264.234 445.894 274.323 460.202 274.323 460.202C276.442 470.711 243.476 490.471 240.341 489.079Z" fill="#FF748E"/>
<g opacity="0.1">
<path opacity="0.1" d="M150.947 249.377C150.978 249.427 151.021 249.47 151.058 249.519C151.243 249.285 151.434 249.051 151.631 248.829C151.421 249.033 151.192 249.217 150.947 249.377Z" fill="black"/>
<path opacity="0.1" d="M165.237 277.614C165.496 274.195 167.325 271.183 169.038 268.177C167.917 267.746 166.795 267.309 165.687 266.853C165.792 266.162 165.846 265.464 165.847 264.765C164.116 267.844 162.231 270.875 161.966 274.343C161.652 278.457 163.679 282.35 165.477 286.046C172.401 300.336 176.669 317.053 171.464 332.058C169.204 338.575 165.305 344.377 162.453 350.679C157.469 361.838 156.004 374.25 158.252 386.263C159.663 393.734 162.521 401.119 161.819 408.69C160.587 421.717 149.358 431.412 138.098 438.071C133.497 440.793 128.119 443.288 122.976 443.109C122.5 443.876 121.969 444.607 121.387 445.296C127.848 448.148 135.283 444.939 141.363 441.342C152.628 434.689 163.882 425.019 165.114 411.967C165.816 404.396 162.958 397.011 161.541 389.539C159.293 377.528 160.754 365.117 165.73 353.956C168.563 347.66 172.505 341.852 174.741 335.335C179.946 320.33 175.671 303.613 168.754 289.323C166.962 285.603 164.923 281.728 165.237 277.614Z" fill="black"/>
<path opacity="0.1" d="M249.562 182.725C248.956 182.103 248.306 181.527 247.616 181C255.081 190.683 244.302 198.912 243.766 209.334C243.285 218.758 244.074 239.836 233.633 244.555C228.471 246.889 222.934 241.777 217.273 241.653C213.19 241.567 209.457 244.16 206.962 247.388C204.468 250.616 202.934 254.459 201.129 258.118C199.483 261.438 197.588 264.63 195.462 267.665C194.23 269.47 192.789 271.269 190.83 272.285C187.442 274.053 183.322 273.061 179.669 271.916C176.117 270.799 172.598 269.567 169.112 268.22C169.104 268.861 169.051 269.502 168.951 270.135C173.546 272.008 178.209 273.687 182.94 275.174C186.586 276.32 190.707 277.311 194.101 275.544C196.054 274.527 197.47 272.722 198.733 270.918C200.861 267.886 202.753 264.697 204.394 261.376C206.205 257.718 207.732 253.868 210.233 250.64C212.734 247.413 216.46 244.826 220.538 244.912C226.205 245.035 231.742 250.148 236.904 247.813C247.344 243.095 246.55 222.017 247.036 212.593C247.603 201.635 259.528 193.097 249.562 182.725Z" fill="black"/>
</g>
<path opacity="0.1" d="M168.397 269.23C167.873 270.154 167.362 271.078 166.894 272.027C166.715 272.39 166.543 272.766 166.389 273.142C163.161 269.889 155.302 262.159 150.916 259.763C151.982 257.477 153.372 255.357 155.043 253.468C155.043 253.468 165.496 258.993 168.397 269.23Z" fill="black"/>
<path d="M168.686 268.726C166.266 257.768 155.043 251.836 155.043 251.836C153.371 253.724 151.981 255.845 150.916 258.131C155.542 260.663 164.067 269.151 166.894 272.027L168.686 268.726Z" fill="#FF748E"/>
</g>
<defs>
<linearGradient id="paint0_linear" x1="449.668" y1="93.6758" x2="449.668" y2="82.3545" gradientUnits="userSpaceOnUse">
<stop stop-color="#808080" stop-opacity="0.25"/>
<stop offset="0.54" stop-color="#808080" stop-opacity="0.12"/>
<stop offset="1" stop-color="#808080" stop-opacity="0.1"/>
</linearGradient>
<linearGradient id="paint1_linear" x1="282585" y1="405647" x2="282585" y2="28315" gradientUnits="userSpaceOnUse">
<stop stop-color="#808080" stop-opacity="0.25"/>
<stop offset="0.54" stop-color="#808080" stop-opacity="0.12"/>
<stop offset="1" stop-color="#808080" stop-opacity="0.1"/>
</linearGradient>
<clipPath id="clip0">
<rect width="669.012" height="482.093" fill="white" transform="translate(0 34.9072)"/>
</clipPath>
</defs>
</svg>
